<svg width="379" height="614" viewBox="0 0 379 614" fill="none" xmlns="http://www.w3.org/2000/svg">
<rect x="54" y="63.5" width="64" height="65" rx="32" fill="#FAF8D4"/>
<rect x="54" y="63.5" width="64" height="65" rx="32" stroke="black"/>
<path d="M68.4659 162H66.7045C66.6004 161.493 66.4181 161.048 66.1577 160.665C65.902 160.281 65.5895 159.959 65.2202 159.699C64.8556 159.434 64.4508 159.235 64.0057 159.102C63.5606 158.97 63.0966 158.903 62.6136 158.903C61.733 158.903 60.9351 159.126 60.2202 159.571C59.5099 160.016 58.9441 160.672 58.5227 161.538C58.1061 162.405 57.8977 163.468 57.8977 164.727C57.8977 165.987 58.1061 167.05 58.5227 167.916C58.9441 168.783 59.5099 169.438 60.2202 169.884C60.9351 170.329 61.733 170.551 62.6136 170.551C63.0966 170.551 63.5606 170.485 64.0057 170.352C64.4508 170.22 64.8556 170.023 65.2202 169.763C65.5895 169.498 65.902 169.173 66.1577 168.79C66.4181 168.402 66.6004 167.956 66.7045 167.455H68.4659C68.3333 168.198 68.0919 168.863 67.7415 169.45C67.3911 170.037 66.9555 170.537 66.4347 170.949C65.9138 171.356 65.3291 171.666 64.6804 171.879C64.0365 172.092 63.3475 172.199 62.6136 172.199C61.3731 172.199 60.2699 171.896 59.304 171.29C58.3381 170.684 57.5781 169.822 57.0241 168.705C56.4702 167.587 56.1932 166.261 56.1932 164.727C56.1932 163.193 56.4702 161.867 57.0241 160.75C57.5781 159.633 58.3381 158.771 59.304 158.165C60.2699 157.559 61.3731 157.256 62.6136 157.256C63.3475 157.256 64.0365 157.362 64.6804 157.575C65.3291 157.788 65.9138 158.101 66.4347 158.513C66.9555 158.92 67.3911 159.417 67.7415 160.004C68.0919 160.587 68.3333 161.252 68.4659 162ZM71.0849 172V161.091H72.7042V162.739H72.8178C73.0167 162.199 73.3765 161.761 73.8974 161.425C74.4182 161.089 75.0053 160.92 75.6587 160.92C75.7818 160.92 75.9357 160.923 76.1204 160.928C76.305 160.932 76.4447 160.939 76.5394 160.949V162.653C76.4826 162.639 76.3524 162.618 76.1488 162.589C75.9499 162.556 75.7392 162.54 75.5167 162.54C74.9864 162.54 74.5129 162.651 74.0962 162.874C73.6843 163.091 73.3576 163.394 73.1161 163.783C72.8794 164.166 72.761 164.604 72.761 165.097V172H71.0849ZM82.7681 172.227C81.717 172.227 80.8103 171.995 80.0479 171.531C79.2904 171.062 78.7056 170.409 78.2937 169.571C77.8865 168.728 77.6829 167.748 77.6829 166.631C77.6829 165.513 77.8865 164.528 78.2937 163.676C78.7056 162.819 79.2785 162.152 80.0124 161.673C80.7511 161.19 81.6128 160.949 82.5977 160.949C83.1658 160.949 83.7269 161.044 84.2809 161.233C84.8349 161.422 85.3391 161.73 85.7937 162.156C86.2482 162.578 86.6104 163.136 86.8803 163.832C87.1502 164.528 87.2852 165.385 87.2852 166.403V167.114H78.8761V165.665H85.5806C85.5806 165.049 85.4575 164.5 85.2113 164.017C84.9698 163.534 84.6242 163.153 84.1744 162.874C83.7293 162.594 83.2037 162.455 82.5977 162.455C81.93 162.455 81.3524 162.62 80.8647 162.952C80.3817 163.278 80.0101 163.705 79.7496 164.23C79.4892 164.756 79.359 165.319 79.359 165.92V166.886C79.359 167.71 79.5011 168.409 79.7852 168.982C80.074 169.55 80.4741 169.983 80.9854 170.281C81.4968 170.575 82.091 170.722 82.7681 170.722C83.2085 170.722 83.6062 170.66 83.9613 170.537C84.3211 170.409 84.6313 170.22 84.8917 169.969C85.1521 169.713 85.3533 169.396 85.4954 169.017L87.1147 169.472C86.9442 170.021 86.6578 170.504 86.2553 170.92C85.8529 171.332 85.3557 171.654 84.7638 171.886C84.172 172.114 83.5067 172.227 82.7681 172.227ZM93.0451 172.256C92.3538 172.256 91.7264 172.125 91.163 171.865C90.5996 171.6 90.1521 171.219 89.8207 170.722C89.4892 170.22 89.3235 169.614 89.3235 168.903C89.3235 168.278 89.4466 167.772 89.6928 167.384C89.939 166.991 90.2681 166.683 90.68 166.46C91.092 166.238 91.5465 166.072 92.0437 165.963C92.5456 165.849 93.0498 165.759 93.5565 165.693C94.2193 165.608 94.7567 165.544 95.1687 165.501C95.5853 165.454 95.8884 165.376 96.0778 165.267C96.2719 165.158 96.369 164.969 96.369 164.699V164.642C96.369 163.941 96.1772 163.397 95.7937 163.009C95.4149 162.62 94.8396 162.426 94.0678 162.426C93.2676 162.426 92.6403 162.601 92.1857 162.952C91.7312 163.302 91.4116 163.676 91.2269 164.074L89.636 163.506C89.9201 162.843 90.2989 162.327 90.7724 161.957C91.2506 161.583 91.7714 161.323 92.3349 161.176C92.9031 161.025 93.4618 160.949 94.011 160.949C94.3614 160.949 94.7638 160.991 95.2184 161.077C95.6777 161.157 96.1204 161.325 96.5465 161.581C96.9774 161.837 97.3349 162.223 97.619 162.739C97.9031 163.255 98.0451 163.946 98.0451 164.812V172H96.369V170.523H96.2837C96.1701 170.759 95.9807 171.013 95.7156 171.283C95.4504 171.553 95.0977 171.782 94.6573 171.972C94.217 172.161 93.6796 172.256 93.0451 172.256ZM93.3008 170.75C93.9637 170.75 94.5224 170.62 94.9769 170.359C95.4362 170.099 95.7818 169.763 96.0138 169.351C96.2506 168.939 96.369 168.506 96.369 168.051V166.517C96.2979 166.602 96.1417 166.68 95.9002 166.751C95.6635 166.818 95.3888 166.877 95.0763 166.929C94.7686 166.976 94.4679 167.019 94.1744 167.057C93.8855 167.09 93.6512 167.118 93.4712 167.142C93.0356 167.199 92.6284 167.291 92.2496 167.419C91.8756 167.542 91.5726 167.729 91.3406 167.98C91.1133 168.226 90.9996 168.562 90.9996 168.989C90.9996 169.571 91.2151 170.011 91.646 170.31C92.0816 170.603 92.6332 170.75 93.3008 170.75ZM101.104 172V161.091H102.724V162.795H102.866C103.093 162.213 103.46 161.761 103.967 161.439C104.473 161.112 105.082 160.949 105.792 160.949C106.512 160.949 107.111 161.112 107.589 161.439C108.072 161.761 108.448 162.213 108.718 162.795H108.832C109.111 162.232 109.53 161.785 110.089 161.453C110.647 161.117 111.317 160.949 112.099 160.949C113.074 160.949 113.872 161.254 114.492 161.865C115.112 162.471 115.423 163.416 115.423 164.699V172H113.746V164.699C113.746 163.894 113.526 163.319 113.086 162.973C112.646 162.627 112.127 162.455 111.531 162.455C110.763 162.455 110.169 162.687 109.748 163.151C109.326 163.61 109.116 164.192 109.116 164.898V172H107.411V164.528C107.411 163.908 107.21 163.409 106.808 163.03C106.405 162.646 105.887 162.455 105.252 162.455C104.817 162.455 104.409 162.571 104.031 162.803C103.656 163.035 103.353 163.357 103.121 163.768C102.894 164.176 102.781 164.647 102.781 165.182V172H101.104Z" fill="#183752"/>
<rect x="54" y="250.5" width="64" height="65" rx="32" fill="#EDB183"/>
<rect x="54" y="250.5" width="64" height="65" rx="32" stroke="black"/>
<path d="M65.0341 351.727C65.0341 353.261 64.7571 354.587 64.2031 355.705C63.6491 356.822 62.8892 357.684 61.9233 358.29C60.9574 358.896 59.8542 359.199 58.6136 359.199C57.3731 359.199 56.2699 358.896 55.304 358.29C54.3381 357.684 53.5781 356.822 53.0241 355.705C52.4702 354.587 52.1932 353.261 52.1932 351.727C52.1932 350.193 52.4702 348.867 53.0241 347.75C53.5781 346.633 54.3381 345.771 55.304 345.165C56.2699 344.559 57.3731 344.256 58.6136 344.256C59.8542 344.256 60.9574 344.559 61.9233 345.165C62.8892 345.771 63.6491 346.633 64.2031 347.75C64.7571 348.867 65.0341 350.193 65.0341 351.727ZM63.3295 351.727C63.3295 350.468 63.1188 349.405 62.6974 348.538C62.2808 347.672 61.715 347.016 61 346.571C60.2898 346.126 59.4943 345.903 58.6136 345.903C57.733 345.903 56.9351 346.126 56.2202 346.571C55.5099 347.016 54.9441 347.672 54.5227 348.538C54.1061 349.405 53.8977 350.468 53.8977 351.727C53.8977 352.987 54.1061 354.05 54.5227 354.916C54.9441 355.783 55.5099 356.438 56.2202 356.884C56.9351 357.329 57.733 357.551 58.6136 357.551C59.4943 357.551 60.2898 357.329 61 356.884C61.715 356.438 62.2808 355.783 62.6974 354.916C63.1188 354.05 63.3295 352.987 63.3295 351.727ZM67.7685 359V348.091H69.3878V349.739H69.5014C69.7003 349.199 70.0601 348.761 70.581 348.425C71.1018 348.089 71.6889 347.92 72.3423 347.92C72.4654 347.92 72.6193 347.923 72.804 347.928C72.9886 347.932 73.1283 347.939 73.223 347.949V349.653C73.1662 349.639 73.036 349.618 72.8324 349.589C72.6335 349.556 72.4228 349.54 72.2003 349.54C71.67 349.54 71.1965 349.651 70.7798 349.874C70.3679 350.091 70.0412 350.394 69.7997 350.783C69.563 351.166 69.4446 351.604 69.4446 352.097V359H67.7685ZM78.4201 359.256C77.7288 359.256 77.1014 359.125 76.538 358.865C75.9746 358.6 75.5271 358.219 75.1957 357.722C74.8642 357.22 74.6985 356.614 74.6985 355.903C74.6985 355.278 74.8216 354.772 75.0678 354.384C75.314 353.991 75.6431 353.683 76.055 353.46C76.467 353.238 76.9215 353.072 77.4187 352.963C77.9206 352.849 78.4248 352.759 78.9315 352.693C79.5943 352.608 80.1317 352.544 80.5437 352.501C80.9603 352.454 81.2634 352.376 81.4528 352.267C81.6469 352.158 81.744 351.969 81.744 351.699V351.642C81.744 350.941 81.5522 350.397 81.1687 350.009C80.7899 349.62 80.2146 349.426 79.4428 349.426C78.6426 349.426 78.0153 349.601 77.5607 349.952C77.1062 350.302 76.7866 350.676 76.6019 351.074L75.011 350.506C75.2951 349.843 75.6739 349.327 76.1474 348.957C76.6256 348.583 77.1464 348.323 77.7099 348.176C78.2781 348.025 78.8368 347.949 79.386 347.949C79.7364 347.949 80.1388 347.991 80.5934 348.077C81.0527 348.157 81.4954 348.325 81.9215 348.581C82.3524 348.837 82.7099 349.223 82.994 349.739C83.2781 350.255 83.4201 350.946 83.4201 351.812V359H81.744V357.523H81.6587C81.5451 357.759 81.3557 358.013 81.0906 358.283C80.8254 358.553 80.4727 358.782 80.0323 358.972C79.592 359.161 79.0546 359.256 78.4201 359.256ZM78.6758 357.75C79.3387 357.75 79.8974 357.62 80.3519 357.359C80.8112 357.099 81.1568 356.763 81.3888 356.351C81.6256 355.939 81.744 355.506 81.744 355.051V353.517C81.6729 353.602 81.5167 353.68 81.2752 353.751C81.0385 353.818 80.7638 353.877 80.4513 353.929C80.1436 353.976 79.8429 354.019 79.5494 354.057C79.2605 354.09 79.0262 354.118 78.8462 354.142C78.4106 354.199 78.0034 354.291 77.6246 354.419C77.2506 354.542 76.9476 354.729 76.7156 354.98C76.4883 355.226 76.3746 355.562 76.3746 355.989C76.3746 356.571 76.5901 357.011 77.021 357.31C77.4566 357.603 78.0082 357.75 78.6758 357.75ZM88.1555 352.438V359H86.4794V348.091H88.0987V349.795H88.2408C88.4964 349.241 88.8847 348.796 89.4055 348.46C89.9264 348.119 90.5987 347.949 91.4226 347.949C92.1612 347.949 92.8075 348.1 93.3615 348.403C93.9155 348.702 94.3464 349.156 94.6541 349.767C94.9619 350.373 95.1158 351.14 95.1158 352.068V359H93.4396V352.182C93.4396 351.325 93.2171 350.657 92.772 350.179C92.3269 349.696 91.7161 349.455 90.9396 349.455C90.4046 349.455 89.9264 349.571 89.505 349.803C89.0883 350.035 88.7592 350.373 88.5178 350.818C88.2763 351.263 88.1555 351.803 88.1555 352.438ZM102.582 363.318C101.772 363.318 101.076 363.214 100.494 363.006C99.9116 362.802 99.4263 362.532 99.038 362.196C98.6545 361.865 98.3491 361.509 98.1218 361.131L99.457 360.193C99.6085 360.392 99.8003 360.619 100.032 360.875C100.264 361.135 100.582 361.36 100.984 361.55C101.391 361.744 101.924 361.841 102.582 361.841C103.463 361.841 104.19 361.628 104.762 361.202C105.335 360.776 105.622 360.108 105.622 359.199V356.983H105.48C105.357 357.182 105.181 357.428 104.954 357.722C104.732 358.01 104.41 358.268 103.988 358.496C103.572 358.718 103.008 358.83 102.298 358.83C101.417 358.83 100.627 358.621 99.9258 358.205C99.2298 357.788 98.6781 357.182 98.271 356.386C97.8685 355.591 97.6673 354.625 97.6673 353.489C97.6673 352.371 97.8638 351.398 98.2567 350.57C98.6497 349.736 99.1966 349.092 99.8974 348.638C100.598 348.179 101.408 347.949 102.326 347.949C103.037 347.949 103.6 348.067 104.017 348.304C104.438 348.536 104.76 348.801 104.983 349.099C105.21 349.393 105.385 349.634 105.508 349.824H105.679V348.091H107.298V359.312C107.298 360.25 107.085 361.012 106.659 361.599C106.237 362.191 105.669 362.625 104.954 362.899C104.244 363.179 103.453 363.318 102.582 363.318ZM102.525 357.324C103.198 357.324 103.766 357.17 104.23 356.862C104.694 356.554 105.047 356.112 105.288 355.534C105.529 354.956 105.65 354.265 105.65 353.46C105.65 352.674 105.532 351.981 105.295 351.379C105.058 350.778 104.708 350.307 104.244 349.966C103.78 349.625 103.207 349.455 102.525 349.455C101.815 349.455 101.223 349.634 100.75 349.994C100.281 350.354 99.9281 350.837 99.6914 351.443C99.4594 352.049 99.3434 352.722 99.3434 353.46C99.3434 354.218 99.4618 354.888 99.6985 355.47C99.94 356.048 100.295 356.502 100.764 356.834C101.237 357.161 101.824 357.324 102.525 357.324ZM114.94 359.227C113.889 359.227 112.982 358.995 112.22 358.531C111.462 358.062 110.877 357.409 110.466 356.571C110.058 355.728 109.855 354.748 109.855 353.631C109.855 352.513 110.058 351.528 110.466 350.676C110.877 349.819 111.45 349.152 112.184 348.673C112.923 348.19 113.785 347.949 114.77 347.949C115.338 347.949 115.899 348.044 116.453 348.233C117.007 348.422 117.511 348.73 117.966 349.156C118.42 349.578 118.782 350.136 119.052 350.832C119.322 351.528 119.457 352.385 119.457 353.403V354.114H111.048V352.665H117.752C117.752 352.049 117.629 351.5 117.383 351.017C117.142 350.534 116.796 350.153 116.346 349.874C115.901 349.594 115.376 349.455 114.77 349.455C114.102 349.455 113.524 349.62 113.037 349.952C112.554 350.278 112.182 350.705 111.922 351.23C111.661 351.756 111.531 352.319 111.531 352.92V353.886C111.531 354.71 111.673 355.409 111.957 355.982C112.246 356.55 112.646 356.983 113.157 357.281C113.669 357.575 114.263 357.722 114.94 357.722C115.38 357.722 115.778 357.66 116.133 357.537C116.493 357.409 116.803 357.22 117.064 356.969C117.324 356.713 117.525 356.396 117.667 356.017L119.287 356.472C119.116 357.021 118.83 357.504 118.427 357.92C118.025 358.332 117.528 358.654 116.936 358.886C116.344 359.114 115.679 359.227 114.94 359.227Z" fill="#183752"/>
<rect x="54" y="437.5" width="64" height="65" rx="32" fill="#9B011C"/>
<rect x="54" y="437.5" width="64" height="65" rx="32" stroke="black"/>
<path d="M69.2614 546V531.455H74.1761C75.3125 531.455 76.2453 531.649 76.9744 532.037C77.7036 532.42 78.2434 532.948 78.5938 533.621C78.9441 534.293 79.1193 535.058 79.1193 535.915C79.1193 536.772 78.9441 537.532 78.5938 538.195C78.2434 538.857 77.706 539.378 76.9815 539.757C76.2571 540.131 75.3314 540.318 74.2045 540.318H70.2273V538.727H74.1477C74.9242 538.727 75.5492 538.614 76.0227 538.386C76.5009 538.159 76.8466 537.837 77.0597 537.42C77.2775 536.999 77.3864 536.497 77.3864 535.915C77.3864 535.332 77.2775 534.823 77.0597 534.388C76.8419 533.952 76.4938 533.616 76.0156 533.379C75.5374 533.138 74.9053 533.017 74.1193 533.017H71.0227V546H69.2614ZM76.108 539.466L79.6875 546H77.642L74.1193 539.466H76.108ZM86.2837 546.227C85.2326 546.227 84.3259 545.995 83.5636 545.531C82.806 545.062 82.2212 544.409 81.8093 543.571C81.4021 542.728 81.1985 541.748 81.1985 540.631C81.1985 539.513 81.4021 538.528 81.8093 537.676C82.2212 536.819 82.7942 536.152 83.5281 535.673C84.2667 535.19 85.1284 534.949 86.1133 534.949C86.6815 534.949 87.2425 535.044 87.7965 535.233C88.3505 535.422 88.8548 535.73 89.3093 536.156C89.7638 536.578 90.1261 537.136 90.396 537.832C90.6658 538.528 90.8008 539.385 90.8008 540.403V541.114H82.3917V539.665H89.0962C89.0962 539.049 88.9731 538.5 88.7269 538.017C88.4854 537.534 88.1398 537.153 87.69 536.874C87.2449 536.594 86.7193 536.455 86.1133 536.455C85.4457 536.455 84.868 536.62 84.3803 536.952C83.8974 537.278 83.5257 537.705 83.2653 538.23C83.0049 538.756 82.8746 539.319 82.8746 539.92V540.886C82.8746 541.71 83.0167 542.409 83.3008 542.982C83.5896 543.55 83.9897 543.983 84.5011 544.281C85.0124 544.575 85.6067 544.722 86.2837 544.722C86.7241 544.722 87.1218 544.66 87.4769 544.537C87.8368 544.409 88.1469 544.22 88.4073 543.969C88.6677 543.713 88.869 543.396 89.011 543.017L90.6303 543.472C90.4599 544.021 90.1734 544.504 89.771 544.92C89.3685 545.332 88.8713 545.654 88.2795 545.886C87.6876 546.114 87.0224 546.227 86.2837 546.227ZM97.4698 546.227C96.5607 546.227 95.7582 545.998 95.0621 545.538C94.3661 545.074 93.8216 544.421 93.4286 543.578C93.0356 542.731 92.8391 541.729 92.8391 540.574C92.8391 539.428 93.0356 538.434 93.4286 537.591C93.8216 536.748 94.3685 536.097 95.0692 535.638C95.77 535.179 96.5797 534.949 97.4982 534.949C98.2085 534.949 98.7695 535.067 99.1815 535.304C99.5981 535.536 99.9154 535.801 100.133 536.099C100.356 536.393 100.529 536.634 100.652 536.824H100.794V531.455H102.47V546H100.85V544.324H100.652C100.529 544.523 100.353 544.774 100.126 545.077C99.8988 545.375 99.5745 545.643 99.1531 545.879C98.7317 546.111 98.1706 546.227 97.4698 546.227ZM97.6971 544.722C98.3694 544.722 98.9376 544.546 99.4016 544.196C99.8656 543.841 100.218 543.351 100.46 542.726C100.701 542.096 100.822 541.369 100.822 540.545C100.822 539.731 100.704 539.018 100.467 538.408C100.23 537.792 99.8799 537.314 99.4158 536.973C98.9518 536.627 98.3789 536.455 97.6971 536.455C96.9869 536.455 96.395 536.637 95.9215 537.001C95.4528 537.361 95.1 537.851 94.8633 538.472C94.6313 539.087 94.5153 539.778 94.5153 540.545C94.5153 541.322 94.6336 542.027 94.8704 542.662C95.1119 543.292 95.467 543.794 95.9357 544.168C96.4092 544.537 96.9963 544.722 97.6971 544.722Z" fill="#183752"/>
<rect x="243.5" y="63.5" width="64" height="65" rx="32" fill="#E2C2C6"/>
<rect x="243.5" y="63.5" width="64" height="65" rx="32" stroke="black"/>
<path d="M225.261 172V157.455H230.176C231.317 157.455 232.25 157.661 232.974 158.072C233.704 158.48 234.243 159.031 234.594 159.727C234.944 160.423 235.119 161.2 235.119 162.057C235.119 162.914 234.944 163.693 234.594 164.393C234.248 165.094 233.713 165.653 232.989 166.07C232.264 166.482 231.336 166.688 230.205 166.688H226.682V165.125H230.148C230.929 165.125 231.556 164.99 232.03 164.72C232.503 164.45 232.847 164.086 233.06 163.626C233.277 163.162 233.386 162.639 233.386 162.057C233.386 161.474 233.277 160.954 233.06 160.494C232.847 160.035 232.501 159.675 232.023 159.415C231.545 159.15 230.91 159.017 230.119 159.017H227.023V172H225.261ZM240.94 172.256C240.248 172.256 239.621 172.125 239.058 171.865C238.494 171.6 238.047 171.219 237.715 170.722C237.384 170.22 237.218 169.614 237.218 168.903C237.218 168.278 237.341 167.772 237.587 167.384C237.834 166.991 238.163 166.683 238.575 166.46C238.987 166.238 239.441 166.072 239.938 165.963C240.44 165.849 240.944 165.759 241.451 165.693C242.114 165.608 242.651 165.544 243.063 165.501C243.48 165.454 243.783 165.376 243.972 165.267C244.166 165.158 244.263 164.969 244.263 164.699V164.642C244.263 163.941 244.072 163.397 243.688 163.009C243.309 162.62 242.734 162.426 241.962 162.426C241.162 162.426 240.535 162.601 240.08 162.952C239.626 163.302 239.306 163.676 239.121 164.074L237.531 163.506C237.815 162.843 238.193 162.327 238.667 161.957C239.145 161.583 239.666 161.323 240.229 161.176C240.798 161.025 241.356 160.949 241.906 160.949C242.256 160.949 242.658 160.991 243.113 161.077C243.572 161.157 244.015 161.325 244.441 161.581C244.872 161.837 245.229 162.223 245.513 162.739C245.798 163.255 245.94 163.946 245.94 164.812V172H244.263V170.523H244.178C244.065 170.759 243.875 171.013 243.61 171.283C243.345 171.553 242.992 171.782 242.552 171.972C242.112 172.161 241.574 172.256 240.94 172.256ZM241.195 170.75C241.858 170.75 242.417 170.62 242.871 170.359C243.331 170.099 243.676 169.763 243.908 169.351C244.145 168.939 244.263 168.506 244.263 168.051V166.517C244.192 166.602 244.036 166.68 243.795 166.751C243.558 166.818 243.283 166.877 242.971 166.929C242.663 166.976 242.362 167.019 242.069 167.057C241.78 167.09 241.546 167.118 241.366 167.142C240.93 167.199 240.523 167.291 240.144 167.419C239.77 167.542 239.467 167.729 239.235 167.98C239.008 168.226 238.894 168.562 238.894 168.989C238.894 169.571 239.11 170.011 239.54 170.31C239.976 170.603 240.528 170.75 241.195 170.75ZM256.726 163.534L255.221 163.96C255.126 163.709 254.986 163.465 254.801 163.229C254.622 162.987 254.375 162.788 254.063 162.632C253.75 162.476 253.35 162.398 252.863 162.398C252.195 162.398 251.639 162.552 251.194 162.859C250.753 163.162 250.533 163.548 250.533 164.017C250.533 164.434 250.685 164.763 250.988 165.004C251.291 165.246 251.764 165.447 252.408 165.608L254.027 166.006C255.003 166.242 255.73 166.605 256.208 167.092C256.686 167.575 256.925 168.198 256.925 168.96C256.925 169.585 256.745 170.144 256.385 170.636C256.03 171.129 255.533 171.517 254.894 171.801C254.255 172.085 253.511 172.227 252.664 172.227C251.551 172.227 250.63 171.986 249.901 171.503C249.172 171.02 248.71 170.314 248.516 169.386L250.107 168.989C250.258 169.576 250.545 170.016 250.966 170.31C251.392 170.603 251.949 170.75 252.635 170.75C253.417 170.75 254.037 170.584 254.496 170.253C254.96 169.917 255.192 169.514 255.192 169.045C255.192 168.667 255.06 168.349 254.794 168.094C254.529 167.833 254.122 167.639 253.573 167.511L251.755 167.085C250.756 166.848 250.022 166.482 249.553 165.984C249.089 165.482 248.857 164.855 248.857 164.102C248.857 163.487 249.03 162.942 249.375 162.469C249.726 161.995 250.202 161.624 250.803 161.354C251.409 161.084 252.096 160.949 252.863 160.949C253.942 160.949 254.79 161.186 255.405 161.659C256.025 162.133 256.466 162.758 256.726 163.534ZM264.192 161.091V162.511H258.539V161.091H264.192ZM260.187 158.477H261.863V168.875C261.863 169.348 261.932 169.704 262.069 169.94C262.211 170.172 262.391 170.329 262.609 170.409C262.831 170.485 263.066 170.523 263.312 170.523C263.496 170.523 263.648 170.513 263.766 170.494C263.885 170.471 263.979 170.452 264.05 170.438L264.391 171.943C264.278 171.986 264.119 172.028 263.915 172.071C263.712 172.118 263.454 172.142 263.141 172.142C262.668 172.142 262.204 172.04 261.749 171.837C261.299 171.633 260.925 171.323 260.627 170.906C260.334 170.49 260.187 169.964 260.187 169.33V158.477ZM271.17 172.227C270.119 172.227 269.213 171.995 268.45 171.531C267.693 171.062 267.108 170.409 266.696 169.571C266.289 168.728 266.085 167.748 266.085 166.631C266.085 165.513 266.289 164.528 266.696 163.676C267.108 162.819 267.681 162.152 268.415 161.673C269.153 161.19 270.015 160.949 271 160.949C271.568 160.949 272.129 161.044 272.683 161.233C273.237 161.422 273.741 161.73 274.196 162.156C274.651 162.578 275.013 163.136 275.283 163.832C275.553 164.528 275.688 165.385 275.688 166.403V167.114H267.278V165.665H273.983C273.983 165.049 273.86 164.5 273.614 164.017C273.372 163.534 273.027 163.153 272.577 162.874C272.132 162.594 271.606 162.455 271 162.455C270.332 162.455 269.755 162.62 269.267 162.952C268.784 163.278 268.412 163.705 268.152 164.23C267.892 164.756 267.761 165.319 267.761 165.92V166.886C267.761 167.71 267.903 168.409 268.188 168.982C268.476 169.55 268.876 169.983 269.388 170.281C269.899 170.575 270.493 170.722 271.17 170.722C271.611 170.722 272.009 170.66 272.364 170.537C272.723 170.409 273.034 170.22 273.294 169.969C273.554 169.713 273.756 169.396 273.898 169.017L275.517 169.472C275.347 170.021 275.06 170.504 274.658 170.92C274.255 171.332 273.758 171.654 273.166 171.886C272.574 172.114 271.909 172.227 271.17 172.227ZM279.913 157.455V172H278.237V157.455H279.913ZM288.836 172V157.455H293.75C294.891 157.455 295.824 157.661 296.549 158.072C297.278 158.48 297.818 159.031 298.168 159.727C298.518 160.423 298.694 161.2 298.694 162.057C298.694 162.914 298.518 163.693 298.168 164.393C297.822 165.094 297.287 165.653 296.563 166.07C295.838 166.482 294.91 166.688 293.779 166.688H290.256V165.125H293.722C294.503 165.125 295.131 164.99 295.604 164.72C296.078 164.45 296.421 164.086 296.634 163.626C296.852 163.162 296.961 162.639 296.961 162.057C296.961 161.474 296.852 160.954 296.634 160.494C296.421 160.035 296.075 159.675 295.597 159.415C295.119 159.15 294.484 159.017 293.694 159.017H290.597V172H288.836ZM301.304 172V161.091H302.98V172H301.304ZM302.156 159.273C301.829 159.273 301.547 159.161 301.311 158.939C301.079 158.716 300.963 158.449 300.963 158.136C300.963 157.824 301.079 157.556 301.311 157.334C301.547 157.111 301.829 157 302.156 157C302.483 157 302.762 157.111 302.994 157.334C303.231 157.556 303.349 157.824 303.349 158.136C303.349 158.449 303.231 158.716 302.994 158.939C302.762 159.161 302.483 159.273 302.156 159.273ZM307.726 165.438V172H306.05V161.091H307.669V162.795H307.811C308.067 162.241 308.455 161.796 308.976 161.46C309.497 161.119 310.169 160.949 310.993 160.949C311.732 160.949 312.378 161.1 312.932 161.403C313.486 161.702 313.917 162.156 314.224 162.767C314.532 163.373 314.686 164.14 314.686 165.068V172H313.01V165.182C313.01 164.325 312.787 163.657 312.342 163.179C311.897 162.696 311.286 162.455 310.51 162.455C309.975 162.455 309.497 162.571 309.075 162.803C308.659 163.035 308.33 163.373 308.088 163.818C307.847 164.263 307.726 164.803 307.726 165.438ZM319.311 168.023L319.283 165.949H319.624L324.397 161.091H326.471L321.385 166.233H321.243L319.311 168.023ZM317.749 172V157.455H319.425V172H317.749ZM324.681 172L320.419 166.602L321.613 165.438L326.811 172H324.681Z" fill="#183752"/>
<rect x="243.5" y="250.5" width="64" height="65" rx="32" fill="#EAF5FF"/>
<rect x="243.5" y="250.5" width="64" height="65" rx="32" stroke="black"/>
<path d="M224.761 359V344.455H229.676C230.817 344.455 231.75 344.661 232.474 345.072C233.204 345.48 233.743 346.031 234.094 346.727C234.444 347.423 234.619 348.2 234.619 349.057C234.619 349.914 234.444 350.693 234.094 351.393C233.748 352.094 233.213 352.653 232.489 353.07C231.764 353.482 230.836 353.688 229.705 353.688H226.182V352.125H229.648C230.429 352.125 231.056 351.99 231.53 351.72C232.003 351.45 232.347 351.086 232.56 350.626C232.777 350.162 232.886 349.639 232.886 349.057C232.886 348.474 232.777 347.954 232.56 347.494C232.347 347.035 232.001 346.675 231.523 346.415C231.045 346.15 230.41 346.017 229.619 346.017H226.523V359H224.761ZM240.44 359.256C239.748 359.256 239.121 359.125 238.558 358.865C237.994 358.6 237.547 358.219 237.215 357.722C236.884 357.22 236.718 356.614 236.718 355.903C236.718 355.278 236.841 354.772 237.087 354.384C237.334 353.991 237.663 353.683 238.075 353.46C238.487 353.238 238.941 353.072 239.438 352.963C239.94 352.849 240.444 352.759 240.951 352.693C241.614 352.608 242.151 352.544 242.563 352.501C242.98 352.454 243.283 352.376 243.472 352.267C243.666 352.158 243.763 351.969 243.763 351.699V351.642C243.763 350.941 243.572 350.397 243.188 350.009C242.809 349.62 242.234 349.426 241.462 349.426C240.662 349.426 240.035 349.601 239.58 349.952C239.126 350.302 238.806 350.676 238.621 351.074L237.031 350.506C237.315 349.843 237.693 349.327 238.167 348.957C238.645 348.583 239.166 348.323 239.729 348.176C240.298 348.025 240.856 347.949 241.406 347.949C241.756 347.949 242.158 347.991 242.613 348.077C243.072 348.157 243.515 348.325 243.941 348.581C244.372 348.837 244.729 349.223 245.013 349.739C245.298 350.255 245.44 350.946 245.44 351.812V359H243.763V357.523H243.678C243.565 357.759 243.375 358.013 243.11 358.283C242.845 358.553 242.492 358.782 242.052 358.972C241.612 359.161 241.074 359.256 240.44 359.256ZM240.695 357.75C241.358 357.75 241.917 357.62 242.371 357.359C242.831 357.099 243.176 356.763 243.408 356.351C243.645 355.939 243.763 355.506 243.763 355.051V353.517C243.692 353.602 243.536 353.68 243.295 353.751C243.058 353.818 242.783 353.877 242.471 353.929C242.163 353.976 241.862 354.019 241.569 354.057C241.28 354.09 241.046 354.118 240.866 354.142C240.43 354.199 240.023 354.291 239.644 354.419C239.27 354.542 238.967 354.729 238.735 354.98C238.508 355.226 238.394 355.562 238.394 355.989C238.394 356.571 238.61 357.011 239.04 357.31C239.476 357.603 240.028 357.75 240.695 357.75ZM256.226 350.534L254.721 350.96C254.626 350.709 254.486 350.465 254.301 350.229C254.122 349.987 253.875 349.788 253.563 349.632C253.25 349.476 252.85 349.398 252.363 349.398C251.695 349.398 251.139 349.552 250.694 349.859C250.253 350.162 250.033 350.548 250.033 351.017C250.033 351.434 250.185 351.763 250.488 352.004C250.791 352.246 251.264 352.447 251.908 352.608L253.527 353.006C254.503 353.242 255.23 353.605 255.708 354.092C256.186 354.575 256.425 355.198 256.425 355.96C256.425 356.585 256.245 357.144 255.885 357.636C255.53 358.129 255.033 358.517 254.394 358.801C253.755 359.085 253.011 359.227 252.164 359.227C251.051 359.227 250.13 358.986 249.401 358.503C248.672 358.02 248.21 357.314 248.016 356.386L249.607 355.989C249.758 356.576 250.045 357.016 250.466 357.31C250.892 357.603 251.449 357.75 252.135 357.75C252.917 357.75 253.537 357.584 253.996 357.253C254.46 356.917 254.692 356.514 254.692 356.045C254.692 355.667 254.56 355.349 254.294 355.094C254.029 354.833 253.622 354.639 253.073 354.511L251.255 354.085C250.256 353.848 249.522 353.482 249.053 352.984C248.589 352.482 248.357 351.855 248.357 351.102C248.357 350.487 248.53 349.942 248.875 349.469C249.226 348.995 249.702 348.624 250.303 348.354C250.909 348.084 251.596 347.949 252.363 347.949C253.442 347.949 254.29 348.186 254.905 348.659C255.525 349.133 255.966 349.758 256.226 350.534ZM263.692 348.091V349.511H258.039V348.091H263.692ZM259.687 345.477H261.363V355.875C261.363 356.348 261.432 356.704 261.569 356.94C261.711 357.172 261.891 357.329 262.109 357.409C262.331 357.485 262.566 357.523 262.812 357.523C262.996 357.523 263.148 357.513 263.266 357.494C263.385 357.471 263.479 357.452 263.55 357.438L263.891 358.943C263.778 358.986 263.619 359.028 263.415 359.071C263.212 359.118 262.954 359.142 262.641 359.142C262.168 359.142 261.704 359.04 261.249 358.837C260.799 358.633 260.425 358.323 260.127 357.906C259.834 357.49 259.687 356.964 259.687 356.33V345.477ZM270.67 359.227C269.619 359.227 268.713 358.995 267.95 358.531C267.193 358.062 266.608 357.409 266.196 356.571C265.789 355.728 265.585 354.748 265.585 353.631C265.585 352.513 265.789 351.528 266.196 350.676C266.608 349.819 267.181 349.152 267.915 348.673C268.653 348.19 269.515 347.949 270.5 347.949C271.068 347.949 271.629 348.044 272.183 348.233C272.737 348.422 273.241 348.73 273.696 349.156C274.151 349.578 274.513 350.136 274.783 350.832C275.053 351.528 275.188 352.385 275.188 353.403V354.114H266.778V352.665H273.483C273.483 352.049 273.36 351.5 273.114 351.017C272.872 350.534 272.527 350.153 272.077 349.874C271.632 349.594 271.106 349.455 270.5 349.455C269.832 349.455 269.255 349.62 268.767 349.952C268.284 350.278 267.912 350.705 267.652 351.23C267.392 351.756 267.261 352.319 267.261 352.92V353.886C267.261 354.71 267.403 355.409 267.688 355.982C267.976 356.55 268.376 356.983 268.888 357.281C269.399 357.575 269.993 357.722 270.67 357.722C271.111 357.722 271.509 357.66 271.864 357.537C272.223 357.409 272.534 357.22 272.794 356.969C273.054 356.713 273.256 356.396 273.398 356.017L275.017 356.472C274.847 357.021 274.56 357.504 274.158 357.92C273.755 358.332 273.258 358.654 272.666 358.886C272.074 359.114 271.409 359.227 270.67 359.227ZM279.413 344.455V359H277.737V344.455H279.413ZM288.336 359V344.455H293.421C294.434 344.455 295.27 344.63 295.928 344.98C296.586 345.326 297.076 345.792 297.398 346.379C297.72 346.962 297.881 347.608 297.881 348.318C297.881 348.943 297.77 349.459 297.547 349.866C297.329 350.274 297.041 350.596 296.681 350.832C296.326 351.069 295.94 351.244 295.523 351.358V351.5C295.968 351.528 296.416 351.685 296.865 351.969C297.315 352.253 297.692 352.66 297.995 353.19C298.298 353.721 298.449 354.369 298.449 355.136C298.449 355.866 298.283 356.521 297.952 357.104C297.621 357.686 297.097 358.148 296.382 358.489C295.667 358.83 294.737 359 293.591 359H288.336ZM290.097 357.438H293.591C294.742 357.438 295.559 357.215 296.042 356.77C296.529 356.32 296.773 355.776 296.773 355.136C296.773 354.644 296.648 354.189 296.397 353.773C296.146 353.351 295.788 353.015 295.324 352.764C294.86 352.509 294.311 352.381 293.676 352.381H290.097V357.438ZM290.097 350.847H293.364C293.894 350.847 294.373 350.742 294.799 350.534C295.23 350.326 295.57 350.032 295.821 349.653C296.077 349.275 296.205 348.83 296.205 348.318C296.205 347.679 295.982 347.137 295.537 346.692C295.092 346.242 294.387 346.017 293.421 346.017H290.097V350.847ZM302.792 344.455V359H301.116V344.455H302.792ZM312.737 354.54V348.091H314.413V359H312.737V357.153H312.624C312.368 357.707 311.97 358.179 311.43 358.567C310.891 358.95 310.209 359.142 309.385 359.142C308.703 359.142 308.097 358.993 307.567 358.695C307.036 358.392 306.62 357.937 306.317 357.331C306.014 356.72 305.862 355.951 305.862 355.023V348.091H307.538V354.909C307.538 355.705 307.761 356.339 308.206 356.812C308.656 357.286 309.229 357.523 309.925 357.523C310.341 357.523 310.765 357.416 311.196 357.203C311.632 356.99 311.996 356.663 312.29 356.223C312.588 355.783 312.737 355.222 312.737 354.54ZM322.057 359.227C321.006 359.227 320.099 358.995 319.337 358.531C318.579 358.062 317.995 357.409 317.583 356.571C317.176 355.728 316.972 354.748 316.972 353.631C316.972 352.513 317.176 351.528 317.583 350.676C317.995 349.819 318.568 349.152 319.301 348.673C320.04 348.19 320.902 347.949 321.887 347.949C322.455 347.949 323.016 348.044 323.57 348.233C324.124 348.422 324.628 348.73 325.083 349.156C325.537 349.578 325.9 350.136 326.169 350.832C326.439 351.528 326.574 352.385 326.574 353.403V354.114H318.165V352.665H324.87C324.87 352.049 324.747 351.5 324.5 351.017C324.259 350.534 323.913 350.153 323.463 349.874C323.018 349.594 322.493 349.455 321.887 349.455C321.219 349.455 320.641 349.62 320.154 349.952C319.671 350.278 319.299 350.705 319.039 351.23C318.778 351.756 318.648 352.319 318.648 352.92V353.886C318.648 354.71 318.79 355.409 319.074 355.982C319.363 356.55 319.763 356.983 320.275 357.281C320.786 357.575 321.38 357.722 322.057 357.722C322.498 357.722 322.895 357.66 323.25 357.537C323.61 357.409 323.92 357.22 324.181 356.969C324.441 356.713 324.642 356.396 324.784 356.017L326.404 356.472C326.233 357.021 325.947 357.504 325.544 357.92C325.142 358.332 324.645 358.654 324.053 358.886C323.461 359.114 322.796 359.227 322.057 359.227Z" fill="#183752"/>
<rect x="243.5" y="437.5" width="64" height="65" rx="32" fill="#CCCCCB"/>
<rect x="243.5" y="437.5" width="64" height="65" rx="32" stroke="black"/>
<path d="M258.716 535.091C258.631 534.371 258.285 533.812 257.679 533.415C257.073 533.017 256.33 532.818 255.449 532.818C254.805 532.818 254.241 532.922 253.759 533.131C253.28 533.339 252.906 533.625 252.636 533.99C252.371 534.355 252.239 534.769 252.239 535.233C252.239 535.621 252.331 535.955 252.516 536.234C252.705 536.509 252.946 536.739 253.24 536.923C253.534 537.103 253.841 537.252 254.163 537.371C254.485 537.484 254.781 537.577 255.051 537.648L256.528 538.045C256.907 538.145 257.329 538.282 257.793 538.457C258.261 538.633 258.709 538.872 259.135 539.175C259.566 539.473 259.921 539.857 260.2 540.325C260.48 540.794 260.619 541.369 260.619 542.051C260.619 542.837 260.413 543.547 260.001 544.182C259.594 544.816 258.998 545.321 258.212 545.695C257.43 546.069 256.481 546.256 255.364 546.256C254.322 546.256 253.42 546.088 252.658 545.751C251.9 545.415 251.304 544.946 250.868 544.345C250.437 543.744 250.193 543.045 250.136 542.25H251.955C252.002 542.799 252.187 543.254 252.509 543.614C252.835 543.969 253.247 544.234 253.744 544.409C254.246 544.58 254.786 544.665 255.364 544.665C256.036 544.665 256.64 544.556 257.175 544.338C257.71 544.116 258.134 543.808 258.446 543.415C258.759 543.017 258.915 542.553 258.915 542.023C258.915 541.54 258.78 541.147 258.51 540.844C258.24 540.541 257.885 540.295 257.445 540.105C257.004 539.916 256.528 539.75 256.017 539.608L254.227 539.097C253.091 538.77 252.191 538.304 251.528 537.697C250.866 537.091 250.534 536.298 250.534 535.318C250.534 534.504 250.754 533.794 251.195 533.188C251.64 532.577 252.236 532.103 252.984 531.767C253.737 531.426 254.578 531.256 255.506 531.256C256.443 531.256 257.277 531.424 258.006 531.76C258.735 532.091 259.313 532.546 259.739 533.124C260.17 533.701 260.397 534.357 260.42 535.091H258.716ZM263.288 546V535.091H264.964V546H263.288ZM264.14 533.273C263.814 533.273 263.532 533.161 263.295 532.939C263.063 532.716 262.947 532.449 262.947 532.136C262.947 531.824 263.063 531.556 263.295 531.334C263.532 531.111 263.814 531 264.14 531C264.467 531 264.746 531.111 264.978 531.334C265.215 531.556 265.333 531.824 265.333 532.136C265.333 532.449 265.215 532.716 264.978 532.939C264.746 533.161 264.467 533.273 264.14 533.273ZM269.71 531.455V546H268.034V531.455H269.71ZM281.701 535.091L277.667 546H275.962L271.928 535.091H273.746L276.757 543.784H276.871L279.882 535.091H281.701ZM288.096 546.227C287.045 546.227 286.138 545.995 285.376 545.531C284.618 545.062 284.034 544.409 283.622 543.571C283.215 542.728 283.011 541.748 283.011 540.631C283.011 539.513 283.215 538.528 283.622 537.676C284.034 536.819 284.607 536.152 285.341 535.673C286.079 535.19 286.941 534.949 287.926 534.949C288.494 534.949 289.055 535.044 289.609 535.233C290.163 535.422 290.667 535.73 291.122 536.156C291.576 536.578 291.939 537.136 292.208 537.832C292.478 538.528 292.613 539.385 292.613 540.403V541.114H284.204V539.665H290.909C290.909 539.049 290.786 538.5 290.539 538.017C290.298 537.534 289.952 537.153 289.502 536.874C289.057 536.594 288.532 536.455 287.926 536.455C287.258 536.455 286.681 536.62 286.193 536.952C285.71 537.278 285.338 537.705 285.078 538.23C284.817 538.756 284.687 539.319 284.687 539.92V540.886C284.687 541.71 284.829 542.409 285.113 542.982C285.402 543.55 285.802 543.983 286.314 544.281C286.825 544.575 287.419 544.722 288.096 544.722C288.537 544.722 288.934 544.66 289.289 544.537C289.649 544.409 289.959 544.22 290.22 543.969C290.48 543.713 290.681 543.396 290.824 543.017L292.443 543.472C292.272 544.021 291.986 544.504 291.583 544.92C291.181 545.332 290.684 545.654 290.092 545.886C289.5 546.114 288.835 546.227 288.096 546.227ZM295.163 546V535.091H296.782V536.739H296.896C297.095 536.199 297.455 535.761 297.975 535.425C298.496 535.089 299.083 534.92 299.737 534.92C299.86 534.92 300.014 534.923 300.199 534.928C300.383 534.932 300.523 534.939 300.618 534.949V536.653C300.561 536.639 300.431 536.618 300.227 536.589C300.028 536.556 299.817 536.54 299.595 536.54C299.065 536.54 298.591 536.651 298.174 536.874C297.762 537.091 297.436 537.394 297.194 537.783C296.958 538.166 296.839 538.604 296.839 539.097V546H295.163Z" fill="#183752"/>
</svg>
