<svg width="172" height="614" viewBox="0 0 172 614" fill="none" xmlns="http://www.w3.org/2000/svg">
<rect x="54" y="63.5" width="64" height="65" rx="32" fill="#FAF8D4"/>
<rect x="54" y="63.5" width="64" height="65" rx="32" stroke="black"/>
<path d="M68.4659 162H66.7045C66.6004 161.493 66.4181 161.048 66.1577 160.665C65.902 160.281 65.5895 159.959 65.2202 159.699C64.8556 159.434 64.4508 159.235 64.0057 159.102C63.5606 158.97 63.0966 158.903 62.6136 158.903C61.733 158.903 60.9351 159.126 60.2202 159.571C59.5099 160.016 58.9441 160.672 58.5227 161.538C58.1061 162.405 57.8977 163.468 57.8977 164.727C57.8977 165.987 58.1061 167.05 58.5227 167.916C58.9441 168.783 59.5099 169.438 60.2202 169.884C60.9351 170.329 61.733 170.551 62.6136 170.551C63.0966 170.551 63.5606 170.485 64.0057 170.352C64.4508 170.22 64.8556 170.023 65.2202 169.763C65.5895 169.498 65.902 169.173 66.1577 168.79C66.4181 168.402 66.6004 167.956 66.7045 167.455H68.4659C68.3333 168.198 68.0919 168.863 67.7415 169.45C67.3911 170.037 66.9555 170.537 66.4347 170.949C65.9138 171.356 65.3291 171.666 64.6804 171.879C64.0365 172.092 63.3475 172.199 62.6136 172.199C61.3731 172.199 60.2699 171.896 59.304 171.29C58.3381 170.684 57.5781 169.822 57.0241 168.705C56.4702 167.587 56.1932 166.261 56.1932 164.727C56.1932 163.193 56.4702 161.867 57.0241 160.75C57.5781 159.633 58.3381 158.771 59.304 158.165C60.2699 157.559 61.3731 157.256 62.6136 157.256C63.3475 157.256 64.0365 157.362 64.6804 157.575C65.3291 157.788 65.9138 158.101 66.4347 158.513C66.9555 158.92 67.3911 159.417 67.7415 160.004C68.0919 160.587 68.3333 161.252 68.4659 162ZM71.0849 172V161.091H72.7042V162.739H72.8178C73.0167 162.199 73.3765 161.761 73.8974 161.425C74.4182 161.089 75.0053 160.92 75.6587 160.92C75.7818 160.92 75.9357 160.923 76.1204 160.928C76.305 160.932 76.4447 160.939 76.5394 160.949V162.653C76.4826 162.639 76.3524 162.618 76.1488 162.589C75.9499 162.556 75.7392 162.54 75.5167 162.54C74.9864 162.54 74.5129 162.651 74.0962 162.874C73.6843 163.091 73.3576 163.394 73.1161 163.783C72.8794 164.166 72.761 164.604 72.761 165.097V172H71.0849ZM82.7681 172.227C81.717 172.227 80.8103 171.995 80.0479 171.531C79.2904 171.062 78.7056 170.409 78.2937 169.571C77.8865 168.728 77.6829 167.748 77.6829 166.631C77.6829 165.513 77.8865 164.528 78.2937 163.676C78.7056 162.819 79.2785 162.152 80.0124 161.673C80.7511 161.19 81.6128 160.949 82.5977 160.949C83.1658 160.949 83.7269 161.044 84.2809 161.233C84.8349 161.422 85.3391 161.73 85.7937 162.156C86.2482 162.578 86.6104 163.136 86.8803 163.832C87.1502 164.528 87.2852 165.385 87.2852 166.403V167.114H78.8761V165.665H85.5806C85.5806 165.049 85.4575 164.5 85.2113 164.017C84.9698 163.534 84.6242 163.153 84.1744 162.874C83.7293 162.594 83.2037 162.455 82.5977 162.455C81.93 162.455 81.3524 162.62 80.8647 162.952C80.3817 163.278 80.0101 163.705 79.7496 164.23C79.4892 164.756 79.359 165.319 79.359 165.92V166.886C79.359 167.71 79.5011 168.409 79.7852 168.982C80.074 169.55 80.4741 169.983 80.9854 170.281C81.4968 170.575 82.091 170.722 82.7681 170.722C83.2085 170.722 83.6062 170.66 83.9613 170.537C84.3211 170.409 84.6313 170.22 84.8917 169.969C85.1521 169.713 85.3533 169.396 85.4954 169.017L87.1147 169.472C86.9442 170.021 86.6578 170.504 86.2553 170.92C85.8529 171.332 85.3557 171.654 84.7638 171.886C84.172 172.114 83.5067 172.227 82.7681 172.227ZM93.0451 172.256C92.3538 172.256 91.7264 172.125 91.163 171.865C90.5996 171.6 90.1521 171.219 89.8207 170.722C89.4892 170.22 89.3235 169.614 89.3235 168.903C89.3235 168.278 89.4466 167.772 89.6928 167.384C89.939 166.991 90.2681 166.683 90.68 166.46C91.092 166.238 91.5465 166.072 92.0437 165.963C92.5456 165.849 93.0498 165.759 93.5565 165.693C94.2193 165.608 94.7567 165.544 95.1687 165.501C95.5853 165.454 95.8884 165.376 96.0778 165.267C96.2719 165.158 96.369 164.969 96.369 164.699V164.642C96.369 163.941 96.1772 163.397 95.7937 163.009C95.4149 162.62 94.8396 162.426 94.0678 162.426C93.2676 162.426 92.6403 162.601 92.1857 162.952C91.7312 163.302 91.4116 163.676 91.2269 164.074L89.636 163.506C89.9201 162.843 90.2989 162.327 90.7724 161.957C91.2506 161.583 91.7714 161.323 92.3349 161.176C92.9031 161.025 93.4618 160.949 94.011 160.949C94.3614 160.949 94.7638 160.991 95.2184 161.077C95.6777 161.157 96.1204 161.325 96.5465 161.581C96.9774 161.837 97.3349 162.223 97.619 162.739C97.9031 163.255 98.0451 163.946 98.0451 164.812V172H96.369V170.523H96.2837C96.1701 170.759 95.9807 171.013 95.7156 171.283C95.4504 171.553 95.0977 171.782 94.6573 171.972C94.217 172.161 93.6796 172.256 93.0451 172.256ZM93.3008 170.75C93.9637 170.75 94.5224 170.62 94.9769 170.359C95.4362 170.099 95.7818 169.763 96.0138 169.351C96.2506 168.939 96.369 168.506 96.369 168.051V166.517C96.2979 166.602 96.1417 166.68 95.9002 166.751C95.6635 166.818 95.3888 166.877 95.0763 166.929C94.7686 166.976 94.4679 167.019 94.1744 167.057C93.8855 167.09 93.6512 167.118 93.4712 167.142C93.0356 167.199 92.6284 167.291 92.2496 167.419C91.8756 167.542 91.5726 167.729 91.3406 167.98C91.1133 168.226 90.9996 168.562 90.9996 168.989C90.9996 169.571 91.2151 170.011 91.646 170.31C92.0816 170.603 92.6332 170.75 93.3008 170.75ZM101.104 172V161.091H102.724V162.795H102.866C103.093 162.213 103.46 161.761 103.967 161.439C104.473 161.112 105.082 160.949 105.792 160.949C106.512 160.949 107.111 161.112 107.589 161.439C108.072 161.761 108.448 162.213 108.718 162.795H108.832C109.111 162.232 109.53 161.785 110.089 161.453C110.647 161.117 111.317 160.949 112.099 160.949C113.074 160.949 113.872 161.254 114.492 161.865C115.112 162.471 115.423 163.416 115.423 164.699V172H113.746V164.699C113.746 163.894 113.526 163.319 113.086 162.973C112.646 162.627 112.127 162.455 111.531 162.455C110.763 162.455 110.169 162.687 109.748 163.151C109.326 163.61 109.116 164.192 109.116 164.898V172H107.411V164.528C107.411 163.908 107.21 163.409 106.808 163.03C106.405 162.646 105.887 162.455 105.252 162.455C104.817 162.455 104.409 162.571 104.031 162.803C103.656 163.035 103.353 163.357 103.121 163.768C102.894 164.176 102.781 164.647 102.781 165.182V172H101.104Z" fill="#183752"/>
<rect x="54" y="250.5" width="64" height="65" rx="32" fill="#EDB183"/>
<rect x="54" y="250.5" width="64" height="65" rx="32" stroke="black"/>
<path d="M65.0341 351.727C65.0341 353.261 64.7571 354.587 64.2031 355.705C63.6491 356.822 62.8892 357.684 61.9233 358.29C60.9574 358.896 59.8542 359.199 58.6136 359.199C57.3731 359.199 56.2699 358.896 55.304 358.29C54.3381 357.684 53.5781 356.822 53.0241 355.705C52.4702 354.587 52.1932 353.261 52.1932 351.727C52.1932 350.193 52.4702 348.867 53.0241 347.75C53.5781 346.633 54.3381 345.771 55.304 345.165C56.2699 344.559 57.3731 344.256 58.6136 344.256C59.8542 344.256 60.9574 344.559 61.9233 345.165C62.8892 345.771 63.6491 346.633 64.2031 347.75C64.7571 348.867 65.0341 350.193 65.0341 351.727ZM63.3295 351.727C63.3295 350.468 63.1188 349.405 62.6974 348.538C62.2808 347.672 61.715 347.016 61 346.571C60.2898 346.126 59.4943 345.903 58.6136 345.903C57.733 345.903 56.9351 346.126 56.2202 346.571C55.5099 347.016 54.9441 347.672 54.5227 348.538C54.1061 349.405 53.8977 350.468 53.8977 351.727C53.8977 352.987 54.1061 354.05 54.5227 354.916C54.9441 355.783 55.5099 356.438 56.2202 356.884C56.9351 357.329 57.733 357.551 58.6136 357.551C59.4943 357.551 60.2898 357.329 61 356.884C61.715 356.438 62.2808 355.783 62.6974 354.916C63.1188 354.05 63.3295 352.987 63.3295 351.727ZM67.7685 359V348.091H69.3878V349.739H69.5014C69.7003 349.199 70.0601 348.761 70.581 348.425C71.1018 348.089 71.6889 347.92 72.3423 347.92C72.4654 347.92 72.6193 347.923 72.804 347.928C72.9886 347.932 73.1283 347.939 73.223 347.949V349.653C73.1662 349.639 73.036 349.618 72.8324 349.589C72.6335 349.556 72.4228 349.54 72.2003 349.54C71.67 349.54 71.1965 349.651 70.7798 349.874C70.3679 350.091 70.0412 350.394 69.7997 350.783C69.563 351.166 69.4446 351.604 69.4446 352.097V359H67.7685ZM78.4201 359.256C77.7288 359.256 77.1014 359.125 76.538 358.865C75.9746 358.6 75.5271 358.219 75.1957 357.722C74.8642 357.22 74.6985 356.614 74.6985 355.903C74.6985 355.278 74.8216 354.772 75.0678 354.384C75.314 353.991 75.6431 353.683 76.055 353.46C76.467 353.238 76.9215 353.072 77.4187 352.963C77.9206 352.849 78.4248 352.759 78.9315 352.693C79.5943 352.608 80.1317 352.544 80.5437 352.501C80.9603 352.454 81.2634 352.376 81.4528 352.267C81.6469 352.158 81.744 351.969 81.744 351.699V351.642C81.744 350.941 81.5522 350.397 81.1687 350.009C80.7899 349.62 80.2146 349.426 79.4428 349.426C78.6426 349.426 78.0153 349.601 77.5607 349.952C77.1062 350.302 76.7866 350.676 76.6019 351.074L75.011 350.506C75.2951 349.843 75.6739 349.327 76.1474 348.957C76.6256 348.583 77.1464 348.323 77.7099 348.176C78.2781 348.025 78.8368 347.949 79.386 347.949C79.7364 347.949 80.1388 347.991 80.5934 348.077C81.0527 348.157 81.4954 348.325 81.9215 348.581C82.3524 348.837 82.7099 349.223 82.994 349.739C83.2781 350.255 83.4201 350.946 83.4201 351.812V359H81.744V357.523H81.6587C81.5451 357.759 81.3557 358.013 81.0906 358.283C80.8254 358.553 80.4727 358.782 80.0323 358.972C79.592 359.161 79.0546 359.256 78.4201 359.256ZM78.6758 357.75C79.3387 357.75 79.8974 357.62 80.3519 357.359C80.8112 357.099 81.1568 356.763 81.3888 356.351C81.6256 355.939 81.744 355.506 81.744 355.051V353.517C81.6729 353.602 81.5167 353.68 81.2752 353.751C81.0385 353.818 80.7638 353.877 80.4513 353.929C80.1436 353.976 79.8429 354.019 79.5494 354.057C79.2605 354.09 79.0262 354.118 78.8462 354.142C78.4106 354.199 78.0034 354.291 77.6246 354.419C77.2506 354.542 76.9476 354.729 76.7156 354.98C76.4883 355.226 76.3746 355.562 76.3746 355.989C76.3746 356.571 76.5901 357.011 77.021 357.31C77.4566 357.603 78.0082 357.75 78.6758 357.75ZM88.1555 352.438V359H86.4794V348.091H88.0987V349.795H88.2408C88.4964 349.241 88.8847 348.796 89.4055 348.46C89.9264 348.119 90.5987 347.949 91.4226 347.949C92.1612 347.949 92.8075 348.1 93.3615 348.403C93.9155 348.702 94.3464 349.156 94.6541 349.767C94.9619 350.373 95.1158 351.14 95.1158 352.068V359H93.4396V352.182C93.4396 351.325 93.2171 350.657 92.772 350.179C92.3269 349.696 91.7161 349.455 90.9396 349.455C90.4046 349.455 89.9264 349.571 89.505 349.803C89.0883 350.035 88.7592 350.373 88.5178 350.818C88.2763 351.263 88.1555 351.803 88.1555 352.438ZM102.582 363.318C101.772 363.318 101.076 363.214 100.494 363.006C99.9116 362.802 99.4263 362.532 99.038 362.196C98.6545 361.865 98.3491 361.509 98.1218 361.131L99.457 360.193C99.6085 360.392 99.8003 360.619 100.032 360.875C100.264 361.135 100.582 361.36 100.984 361.55C101.391 361.744 101.924 361.841 102.582 361.841C103.463 361.841 104.19 361.628 104.762 361.202C105.335 360.776 105.622 360.108 105.622 359.199V356.983H105.48C105.357 357.182 105.181 357.428 104.954 357.722C104.732 358.01 104.41 358.268 103.988 358.496C103.572 358.718 103.008 358.83 102.298 358.83C101.417 358.83 100.627 358.621 99.9258 358.205C99.2298 357.788 98.6781 357.182 98.271 356.386C97.8685 355.591 97.6673 354.625 97.6673 353.489C97.6673 352.371 97.8638 351.398 98.2567 350.57C98.6497 349.736 99.1966 349.092 99.8974 348.638C100.598 348.179 101.408 347.949 102.326 347.949C103.037 347.949 103.6 348.067 104.017 348.304C104.438 348.536 104.76 348.801 104.983 349.099C105.21 349.393 105.385 349.634 105.508 349.824H105.679V348.091H107.298V359.312C107.298 360.25 107.085 361.012 106.659 361.599C106.237 362.191 105.669 362.625 104.954 362.899C104.244 363.179 103.453 363.318 102.582 363.318ZM102.525 357.324C103.198 357.324 103.766 357.17 104.23 356.862C104.694 356.554 105.047 356.112 105.288 355.534C105.529 354.956 105.65 354.265 105.65 353.46C105.65 352.674 105.532 351.981 105.295 351.379C105.058 350.778 104.708 350.307 104.244 349.966C103.78 349.625 103.207 349.455 102.525 349.455C101.815 349.455 101.223 349.634 100.75 349.994C100.281 350.354 99.9281 350.837 99.6914 351.443C99.4594 352.049 99.3434 352.722 99.3434 353.46C99.3434 354.218 99.4618 354.888 99.6985 355.47C99.94 356.048 100.295 356.502 100.764 356.834C101.237 357.161 101.824 357.324 102.525 357.324ZM114.94 359.227C113.889 359.227 112.982 358.995 112.22 358.531C111.462 358.062 110.877 357.409 110.466 356.571C110.058 355.728 109.855 354.748 109.855 353.631C109.855 352.513 110.058 351.528 110.466 350.676C110.877 349.819 111.45 349.152 112.184 348.673C112.923 348.19 113.785 347.949 114.77 347.949C115.338 347.949 115.899 348.044 116.453 348.233C117.007 348.422 117.511 348.73 117.966 349.156C118.42 349.578 118.782 350.136 119.052 350.832C119.322 351.528 119.457 352.385 119.457 353.403V354.114H111.048V352.665H117.752C117.752 352.049 117.629 351.5 117.383 351.017C117.142 350.534 116.796 350.153 116.346 349.874C115.901 349.594 115.376 349.455 114.77 349.455C114.102 349.455 113.524 349.62 113.037 349.952C112.554 350.278 112.182 350.705 111.922 351.23C111.661 351.756 111.531 352.319 111.531 352.92V353.886C111.531 354.71 111.673 355.409 111.957 355.982C112.246 356.55 112.646 356.983 113.157 357.281C113.669 357.575 114.263 357.722 114.94 357.722C115.38 357.722 115.778 357.66 116.133 357.537C116.493 357.409 116.803 357.22 117.064 356.969C117.324 356.713 117.525 356.396 117.667 356.017L119.287 356.472C119.116 357.021 118.83 357.504 118.427 357.92C118.025 358.332 117.528 358.654 116.936 358.886C116.344 359.114 115.679 359.227 114.94 359.227Z" fill="#183752"/>
<rect x="54" y="437.5" width="64" height="65" rx="32" fill="#9B011C"/>
<rect x="54" y="437.5" width="64" height="65" rx="32" stroke="black"/>
<path d="M69.2614 546V531.455H74.1761C75.3125 531.455 76.2453 531.649 76.9744 532.037C77.7036 532.42 78.2434 532.948 78.5938 533.621C78.9441 534.293 79.1193 535.058 79.1193 535.915C79.1193 536.772 78.9441 537.532 78.5938 538.195C78.2434 538.857 77.706 539.378 76.9815 539.757C76.2571 540.131 75.3314 540.318 74.2045 540.318H70.2273V538.727H74.1477C74.9242 538.727 75.5492 538.614 76.0227 538.386C76.5009 538.159 76.8466 537.837 77.0597 537.42C77.2775 536.999 77.3864 536.497 77.3864 535.915C77.3864 535.332 77.2775 534.823 77.0597 534.388C76.8419 533.952 76.4938 533.616 76.0156 533.379C75.5374 533.138 74.9053 533.017 74.1193 533.017H71.0227V546H69.2614ZM76.108 539.466L79.6875 546H77.642L74.1193 539.466H76.108ZM86.2837 546.227C85.2326 546.227 84.3259 545.995 83.5636 545.531C82.806 545.062 82.2212 544.409 81.8093 543.571C81.4021 542.728 81.1985 541.748 81.1985 540.631C81.1985 539.513 81.4021 538.528 81.8093 537.676C82.2212 536.819 82.7942 536.152 83.5281 535.673C84.2667 535.19 85.1284 534.949 86.1133 534.949C86.6815 534.949 87.2425 535.044 87.7965 535.233C88.3505 535.422 88.8548 535.73 89.3093 536.156C89.7638 536.578 90.1261 537.136 90.396 537.832C90.6658 538.528 90.8008 539.385 90.8008 540.403V541.114H82.3917V539.665H89.0962C89.0962 539.049 88.9731 538.5 88.7269 538.017C88.4854 537.534 88.1398 537.153 87.69 536.874C87.2449 536.594 86.7193 536.455 86.1133 536.455C85.4457 536.455 84.868 536.62 84.3803 536.952C83.8974 537.278 83.5257 537.705 83.2653 538.23C83.0049 538.756 82.8746 539.319 82.8746 539.92V540.886C82.8746 541.71 83.0167 542.409 83.3008 542.982C83.5896 543.55 83.9897 543.983 84.5011 544.281C85.0124 544.575 85.6067 544.722 86.2837 544.722C86.7241 544.722 87.1218 544.66 87.4769 544.537C87.8368 544.409 88.1469 544.22 88.4073 543.969C88.6677 543.713 88.869 543.396 89.011 543.017L90.6303 543.472C90.4599 544.021 90.1734 544.504 89.771 544.92C89.3685 545.332 88.8713 545.654 88.2795 545.886C87.6876 546.114 87.0224 546.227 86.2837 546.227ZM97.4698 546.227C96.5607 546.227 95.7582 545.998 95.0621 545.538C94.3661 545.074 93.8216 544.421 93.4286 543.578C93.0356 542.731 92.8391 541.729 92.8391 540.574C92.8391 539.428 93.0356 538.434 93.4286 537.591C93.8216 536.748 94.3685 536.097 95.0692 535.638C95.77 535.179 96.5797 534.949 97.4982 534.949C98.2085 534.949 98.7695 535.067 99.1815 535.304C99.5981 535.536 99.9154 535.801 100.133 536.099C100.356 536.393 100.529 536.634 100.652 536.824H100.794V531.455H102.47V546H100.85V544.324H100.652C100.529 544.523 100.353 544.774 100.126 545.077C99.8988 545.375 99.5745 545.643 99.1531 545.879C98.7317 546.111 98.1706 546.227 97.4698 546.227ZM97.6971 544.722C98.3694 544.722 98.9376 544.546 99.4016 544.196C99.8656 543.841 100.218 543.351 100.46 542.726C100.701 542.096 100.822 541.369 100.822 540.545C100.822 539.731 100.704 539.018 100.467 538.408C100.23 537.792 99.8799 537.314 99.4158 536.973C98.9518 536.627 98.3789 536.455 97.6971 536.455C96.9869 536.455 96.395 536.637 95.9215 537.001C95.4528 537.361 95.1 537.851 94.8633 538.472C94.6313 539.087 94.5153 539.778 94.5153 540.545C94.5153 541.322 94.6336 542.027 94.8704 542.662C95.1119 543.292 95.467 543.794 95.9357 544.168C96.4092 544.537 96.9963 544.722 97.6971 544.722Z" fill="#183752"/>
</svg>
