<svg width="207" height="614" viewBox="0 0 207 614" fill="none" xmlns="http://www.w3.org/2000/svg">
<rect x="71.5" y="63.5" width="64" height="65" rx="32" fill="#E2C2C6"/>
<rect x="71.5" y="63.5" width="64" height="65" rx="32" stroke="black"/>
<path d="M53.2614 172V157.455H58.1761C59.3172 157.455 60.25 157.661 60.9744 158.072C61.7036 158.48 62.2434 159.031 62.5938 159.727C62.9441 160.423 63.1193 161.2 63.1193 162.057C63.1193 162.914 62.9441 163.693 62.5938 164.393C62.2481 165.094 61.7131 165.653 60.9886 166.07C60.2642 166.482 59.3362 166.688 58.2045 166.688H54.6818V165.125H58.1477C58.929 165.125 59.5563 164.99 60.0298 164.72C60.5033 164.45 60.8466 164.086 61.0597 163.626C61.2775 163.162 61.3864 162.639 61.3864 162.057C61.3864 161.474 61.2775 160.954 61.0597 160.494C60.8466 160.035 60.5009 159.675 60.0227 159.415C59.5445 159.15 58.91 159.017 58.1193 159.017H55.0227V172H53.2614ZM68.9396 172.256C68.2483 172.256 67.621 172.125 67.0575 171.865C66.4941 171.6 66.0466 171.219 65.7152 170.722C65.3838 170.22 65.218 169.614 65.218 168.903C65.218 168.278 65.3411 167.772 65.5874 167.384C65.8336 166.991 66.1626 166.683 66.5746 166.46C66.9865 166.238 67.4411 166.072 67.9382 165.963C68.4401 165.849 68.9444 165.759 69.451 165.693C70.1139 165.608 70.6513 165.544 71.0632 165.501C71.4799 165.454 71.7829 165.376 71.9723 165.267C72.1664 165.158 72.2635 164.969 72.2635 164.699V164.642C72.2635 163.941 72.0717 163.397 71.6882 163.009C71.3094 162.62 70.7341 162.426 69.9624 162.426C69.1622 162.426 68.5348 162.601 68.0803 162.952C67.6257 163.302 67.3061 163.676 67.1214 164.074L65.5305 163.506C65.8146 162.843 66.1934 162.327 66.6669 161.957C67.1451 161.583 67.666 161.323 68.2294 161.176C68.7976 161.025 69.3563 160.949 69.9055 160.949C70.2559 160.949 70.6584 160.991 71.1129 161.077C71.5722 161.157 72.0149 161.325 72.4411 161.581C72.8719 161.837 73.2294 162.223 73.5135 162.739C73.7976 163.255 73.9396 163.946 73.9396 164.812V172H72.2635V170.523H72.1783C72.0646 170.759 71.8752 171.013 71.6101 171.283C71.3449 171.553 70.9922 171.782 70.5518 171.972C70.1115 172.161 69.5741 172.256 68.9396 172.256ZM69.1953 170.75C69.8582 170.75 70.4169 170.62 70.8714 170.359C71.3307 170.099 71.6764 169.763 71.9084 169.351C72.1451 168.939 72.2635 168.506 72.2635 168.051V166.517C72.1925 166.602 72.0362 166.68 71.7947 166.751C71.558 166.818 71.2834 166.877 70.9709 166.929C70.6631 166.976 70.3625 167.019 70.0689 167.057C69.7801 167.09 69.5457 167.118 69.3658 167.142C68.9302 167.199 68.523 167.291 68.1442 167.419C67.7701 167.542 67.4671 167.729 67.2351 167.98C67.0078 168.226 66.8942 168.562 66.8942 168.989C66.8942 169.571 67.1096 170.011 67.5405 170.31C67.9761 170.603 68.5277 170.75 69.1953 170.75ZM84.7262 163.534L83.2205 163.96C83.1258 163.709 82.9862 163.465 82.8015 163.229C82.6216 162.987 82.3754 162.788 82.0629 162.632C81.7504 162.476 81.3503 162.398 80.8626 162.398C80.195 162.398 79.6386 162.552 79.1935 162.859C78.7532 163.162 78.533 163.548 78.533 164.017C78.533 164.434 78.6845 164.763 78.9876 165.004C79.2906 165.246 79.7641 165.447 80.408 165.608L82.0273 166.006C83.0027 166.242 83.7295 166.605 84.2077 167.092C84.686 167.575 84.9251 168.198 84.9251 168.96C84.9251 169.585 84.7451 170.144 84.3853 170.636C84.0302 171.129 83.533 171.517 82.8938 171.801C82.2546 172.085 81.5112 172.227 80.6637 172.227C79.551 172.227 78.6301 171.986 77.9009 171.503C77.1718 171.02 76.7101 170.314 76.516 169.386L78.1069 168.989C78.2584 169.576 78.5449 170.016 78.9663 170.31C79.3924 170.603 79.9487 170.75 80.6353 170.75C81.4165 170.75 82.0368 170.584 82.4961 170.253C82.9601 169.917 83.1921 169.514 83.1921 169.045C83.1921 168.667 83.0595 168.349 82.7944 168.094C82.5292 167.833 82.122 167.639 81.5728 167.511L79.7546 167.085C78.7556 166.848 78.0217 166.482 77.5529 165.984C77.0889 165.482 76.8569 164.855 76.8569 164.102C76.8569 163.487 77.0297 162.942 77.3754 162.469C77.7257 161.995 78.2016 161.624 78.8029 161.354C79.409 161.084 80.0955 160.949 80.8626 160.949C81.9421 160.949 82.7897 161.186 83.4052 161.659C84.0254 162.133 84.4658 162.758 84.7262 163.534ZM92.1925 161.091V162.511H86.5391V161.091H92.1925ZM88.1868 158.477H89.8629V168.875C89.8629 169.348 89.9316 169.704 90.0689 169.94C90.2109 170.172 90.3909 170.329 90.6087 170.409C90.8312 170.485 91.0656 170.523 91.3118 170.523C91.4964 170.523 91.648 170.513 91.7663 170.494C91.8847 170.471 91.9794 170.452 92.0504 170.438L92.3913 171.943C92.2777 171.986 92.1191 172.028 91.9155 172.071C91.7119 172.118 91.4538 172.142 91.1413 172.142C90.6679 172.142 90.2038 172.04 89.7493 171.837C89.2995 171.633 88.9254 171.323 88.6271 170.906C88.3336 170.49 88.1868 169.964 88.1868 169.33V158.477ZM99.1705 172.227C98.1193 172.227 97.2126 171.995 96.4503 171.531C95.6927 171.062 95.108 170.409 94.696 169.571C94.2888 168.728 94.0852 167.748 94.0852 166.631C94.0852 165.513 94.2888 164.528 94.696 163.676C95.108 162.819 95.6809 162.152 96.4148 161.673C97.1534 161.19 98.0152 160.949 99 160.949C99.5682 160.949 100.129 161.044 100.683 161.233C101.237 161.422 101.741 161.73 102.196 162.156C102.651 162.578 103.013 163.136 103.283 163.832C103.553 164.528 103.688 165.385 103.688 166.403V167.114H95.2784V165.665H101.983C101.983 165.049 101.86 164.5 101.614 164.017C101.372 163.534 101.027 163.153 100.577 162.874C100.132 162.594 99.6061 162.455 99 162.455C98.3324 162.455 97.7547 162.62 97.267 162.952C96.7841 163.278 96.4124 163.705 96.152 164.23C95.8916 164.756 95.7614 165.319 95.7614 165.92V166.886C95.7614 167.71 95.9034 168.409 96.1875 168.982C96.4763 169.55 96.8764 169.983 97.3878 170.281C97.8991 170.575 98.4934 170.722 99.1705 170.722C99.6108 170.722 100.009 170.66 100.364 170.537C100.723 170.409 101.034 170.22 101.294 169.969C101.554 169.713 101.756 169.396 101.898 169.017L103.517 169.472C103.347 170.021 103.06 170.504 102.658 170.92C102.255 171.332 101.758 171.654 101.166 171.886C100.574 172.114 99.9091 172.227 99.1705 172.227ZM107.913 157.455V172H106.237V157.455H107.913ZM116.836 172V157.455H121.75C122.891 157.455 123.824 157.661 124.549 158.072C125.278 158.48 125.818 159.031 126.168 159.727C126.518 160.423 126.694 161.2 126.694 162.057C126.694 162.914 126.518 163.693 126.168 164.393C125.822 165.094 125.287 165.653 124.563 166.07C123.838 166.482 122.91 166.688 121.779 166.688H118.256V165.125H121.722C122.503 165.125 123.131 164.99 123.604 164.72C124.078 164.45 124.421 164.086 124.634 163.626C124.852 163.162 124.961 162.639 124.961 162.057C124.961 161.474 124.852 160.954 124.634 160.494C124.421 160.035 124.075 159.675 123.597 159.415C123.119 159.15 122.484 159.017 121.694 159.017H118.597V172H116.836ZM129.304 172V161.091H130.98V172H129.304ZM130.156 159.273C129.829 159.273 129.547 159.161 129.311 158.939C129.079 158.716 128.963 158.449 128.963 158.136C128.963 157.824 129.079 157.556 129.311 157.334C129.547 157.111 129.829 157 130.156 157C130.483 157 130.762 157.111 130.994 157.334C131.231 157.556 131.349 157.824 131.349 158.136C131.349 158.449 131.231 158.716 130.994 158.939C130.762 159.161 130.483 159.273 130.156 159.273ZM135.726 165.438V172H134.05V161.091H135.669V162.795H135.811C136.067 162.241 136.455 161.796 136.976 161.46C137.497 161.119 138.169 160.949 138.993 160.949C139.732 160.949 140.378 161.1 140.932 161.403C141.486 161.702 141.917 162.156 142.224 162.767C142.532 163.373 142.686 164.14 142.686 165.068V172H141.01V165.182C141.01 164.325 140.787 163.657 140.342 163.179C139.897 162.696 139.286 162.455 138.51 162.455C137.975 162.455 137.497 162.571 137.075 162.803C136.659 163.035 136.33 163.373 136.088 163.818C135.847 164.263 135.726 164.803 135.726 165.438ZM147.311 168.023L147.283 165.949H147.624L152.397 161.091H154.471L149.385 166.233H149.243L147.311 168.023ZM145.749 172V157.455H147.425V172H145.749ZM152.681 172L148.419 166.602L149.613 165.438L154.811 172H152.681Z" fill="#183752"/>
<rect x="71.5" y="250.5" width="64" height="65" rx="32" fill="#EAF5FF"/>
<rect x="71.5" y="250.5" width="64" height="65" rx="32" stroke="black"/>
<path d="M52.7614 359V344.455H57.6761C58.8172 344.455 59.75 344.661 60.4744 345.072C61.2036 345.48 61.7434 346.031 62.0938 346.727C62.4441 347.423 62.6193 348.2 62.6193 349.057C62.6193 349.914 62.4441 350.693 62.0938 351.393C61.7481 352.094 61.2131 352.653 60.4886 353.07C59.7642 353.482 58.8362 353.688 57.7045 353.688H54.1818V352.125H57.6477C58.429 352.125 59.0563 351.99 59.5298 351.72C60.0033 351.45 60.3466 351.086 60.5597 350.626C60.7775 350.162 60.8864 349.639 60.8864 349.057C60.8864 348.474 60.7775 347.954 60.5597 347.494C60.3466 347.035 60.0009 346.675 59.5227 346.415C59.0445 346.15 58.41 346.017 57.6193 346.017H54.5227V359H52.7614ZM68.4396 359.256C67.7483 359.256 67.121 359.125 66.5575 358.865C65.9941 358.6 65.5466 358.219 65.2152 357.722C64.8838 357.22 64.718 356.614 64.718 355.903C64.718 355.278 64.8411 354.772 65.0874 354.384C65.3336 353.991 65.6626 353.683 66.0746 353.46C66.4865 353.238 66.9411 353.072 67.4382 352.963C67.9401 352.849 68.4444 352.759 68.951 352.693C69.6139 352.608 70.1513 352.544 70.5632 352.501C70.9799 352.454 71.2829 352.376 71.4723 352.267C71.6664 352.158 71.7635 351.969 71.7635 351.699V351.642C71.7635 350.941 71.5717 350.397 71.1882 350.009C70.8094 349.62 70.2341 349.426 69.4624 349.426C68.6622 349.426 68.0348 349.601 67.5803 349.952C67.1257 350.302 66.8061 350.676 66.6214 351.074L65.0305 350.506C65.3146 349.843 65.6934 349.327 66.1669 348.957C66.6451 348.583 67.166 348.323 67.7294 348.176C68.2976 348.025 68.8563 347.949 69.4055 347.949C69.7559 347.949 70.1584 347.991 70.6129 348.077C71.0722 348.157 71.5149 348.325 71.9411 348.581C72.3719 348.837 72.7294 349.223 73.0135 349.739C73.2976 350.255 73.4396 350.946 73.4396 351.812V359H71.7635V357.523H71.6783C71.5646 357.759 71.3752 358.013 71.1101 358.283C70.8449 358.553 70.4922 358.782 70.0518 358.972C69.6115 359.161 69.0741 359.256 68.4396 359.256ZM68.6953 357.75C69.3582 357.75 69.9169 357.62 70.3714 357.359C70.8307 357.099 71.1764 356.763 71.4084 356.351C71.6451 355.939 71.7635 355.506 71.7635 355.051V353.517C71.6925 353.602 71.5362 353.68 71.2947 353.751C71.058 353.818 70.7834 353.877 70.4709 353.929C70.1631 353.976 69.8625 354.019 69.5689 354.057C69.2801 354.09 69.0457 354.118 68.8658 354.142C68.4302 354.199 68.023 354.291 67.6442 354.419C67.2701 354.542 66.9671 354.729 66.7351 354.98C66.5078 355.226 66.3942 355.562 66.3942 355.989C66.3942 356.571 66.6096 357.011 67.0405 357.31C67.4761 357.603 68.0277 357.75 68.6953 357.75ZM84.2262 350.534L82.7205 350.96C82.6258 350.709 82.4862 350.465 82.3015 350.229C82.1216 349.987 81.8754 349.788 81.5629 349.632C81.2504 349.476 80.8503 349.398 80.3626 349.398C79.695 349.398 79.1386 349.552 78.6935 349.859C78.2532 350.162 78.033 350.548 78.033 351.017C78.033 351.434 78.1845 351.763 78.4876 352.004C78.7906 352.246 79.2641 352.447 79.908 352.608L81.5273 353.006C82.5027 353.242 83.2295 353.605 83.7077 354.092C84.186 354.575 84.4251 355.198 84.4251 355.96C84.4251 356.585 84.2451 357.144 83.8853 357.636C83.5302 358.129 83.033 358.517 82.3938 358.801C81.7546 359.085 81.0112 359.227 80.1637 359.227C79.051 359.227 78.1301 358.986 77.4009 358.503C76.6718 358.02 76.2101 357.314 76.016 356.386L77.6069 355.989C77.7584 356.576 78.0449 357.016 78.4663 357.31C78.8924 357.603 79.4487 357.75 80.1353 357.75C80.9165 357.75 81.5368 357.584 81.9961 357.253C82.4601 356.917 82.6921 356.514 82.6921 356.045C82.6921 355.667 82.5595 355.349 82.2944 355.094C82.0292 354.833 81.622 354.639 81.0728 354.511L79.2546 354.085C78.2556 353.848 77.5217 353.482 77.0529 352.984C76.5889 352.482 76.3569 351.855 76.3569 351.102C76.3569 350.487 76.5297 349.942 76.8754 349.469C77.2257 348.995 77.7016 348.624 78.3029 348.354C78.909 348.084 79.5955 347.949 80.3626 347.949C81.4421 347.949 82.2897 348.186 82.9052 348.659C83.5254 349.133 83.9658 349.758 84.2262 350.534ZM91.6925 348.091V349.511H86.0391V348.091H91.6925ZM87.6868 345.477H89.3629V355.875C89.3629 356.348 89.4316 356.704 89.5689 356.94C89.7109 357.172 89.8909 357.329 90.1087 357.409C90.3312 357.485 90.5656 357.523 90.8118 357.523C90.9964 357.523 91.148 357.513 91.2663 357.494C91.3847 357.471 91.4794 357.452 91.5504 357.438L91.8913 358.943C91.7777 358.986 91.6191 359.028 91.4155 359.071C91.2119 359.118 90.9538 359.142 90.6413 359.142C90.1679 359.142 89.7038 359.04 89.2493 358.837C88.7995 358.633 88.4254 358.323 88.1271 357.906C87.8336 357.49 87.6868 356.964 87.6868 356.33V345.477ZM98.6705 359.227C97.6193 359.227 96.7126 358.995 95.9503 358.531C95.1927 358.062 94.608 357.409 94.196 356.571C93.7888 355.728 93.5852 354.748 93.5852 353.631C93.5852 352.513 93.7888 351.528 94.196 350.676C94.608 349.819 95.1809 349.152 95.9148 348.673C96.6534 348.19 97.5152 347.949 98.5 347.949C99.0682 347.949 99.6293 348.044 100.183 348.233C100.737 348.422 101.241 348.73 101.696 349.156C102.151 349.578 102.513 350.136 102.783 350.832C103.053 351.528 103.188 352.385 103.188 353.403V354.114H94.7784V352.665H101.483C101.483 352.049 101.36 351.5 101.114 351.017C100.872 350.534 100.527 350.153 100.077 349.874C99.6316 349.594 99.1061 349.455 98.5 349.455C97.8324 349.455 97.2547 349.62 96.767 349.952C96.2841 350.278 95.9124 350.705 95.652 351.23C95.3916 351.756 95.2614 352.319 95.2614 352.92V353.886C95.2614 354.71 95.4034 355.409 95.6875 355.982C95.9763 356.55 96.3764 356.983 96.8878 357.281C97.3991 357.575 97.9934 357.722 98.6705 357.722C99.1108 357.722 99.5085 357.66 99.8636 357.537C100.223 357.409 100.534 357.22 100.794 356.969C101.054 356.713 101.256 356.396 101.398 356.017L103.017 356.472C102.847 357.021 102.56 357.504 102.158 357.92C101.755 358.332 101.258 358.654 100.666 358.886C100.074 359.114 99.4091 359.227 98.6705 359.227ZM107.413 344.455V359H105.737V344.455H107.413ZM116.336 359V344.455H121.421C122.434 344.455 123.27 344.63 123.928 344.98C124.586 345.326 125.076 345.792 125.398 346.379C125.72 346.962 125.881 347.608 125.881 348.318C125.881 348.943 125.77 349.459 125.547 349.866C125.329 350.274 125.041 350.596 124.681 350.832C124.326 351.069 123.94 351.244 123.523 351.358V351.5C123.968 351.528 124.416 351.685 124.865 351.969C125.315 352.253 125.692 352.66 125.995 353.19C126.298 353.721 126.449 354.369 126.449 355.136C126.449 355.866 126.283 356.521 125.952 357.104C125.621 357.686 125.097 358.148 124.382 358.489C123.667 358.83 122.737 359 121.591 359H116.336ZM118.097 357.438H121.591C122.742 357.438 123.559 357.215 124.042 356.77C124.529 356.32 124.773 355.776 124.773 355.136C124.773 354.644 124.648 354.189 124.397 353.773C124.146 353.351 123.788 353.015 123.324 352.764C122.86 352.509 122.311 352.381 121.676 352.381H118.097V357.438ZM118.097 350.847H121.364C121.894 350.847 122.373 350.742 122.799 350.534C123.23 350.326 123.57 350.032 123.821 349.653C124.077 349.275 124.205 348.83 124.205 348.318C124.205 347.679 123.982 347.137 123.537 346.692C123.092 346.242 122.387 346.017 121.421 346.017H118.097V350.847ZM130.792 344.455V359H129.116V344.455H130.792ZM140.737 354.54V348.091H142.413V359H140.737V357.153H140.624C140.368 357.707 139.97 358.179 139.43 358.567C138.891 358.95 138.209 359.142 137.385 359.142C136.703 359.142 136.097 358.993 135.567 358.695C135.036 358.392 134.62 357.937 134.317 357.331C134.014 356.72 133.862 355.951 133.862 355.023V348.091H135.538V354.909C135.538 355.705 135.761 356.339 136.206 356.812C136.656 357.286 137.229 357.523 137.925 357.523C138.341 357.523 138.765 357.416 139.196 357.203C139.632 356.99 139.996 356.663 140.29 356.223C140.588 355.783 140.737 355.222 140.737 354.54ZM150.057 359.227C149.006 359.227 148.099 358.995 147.337 358.531C146.579 358.062 145.995 357.409 145.583 356.571C145.176 355.728 144.972 354.748 144.972 353.631C144.972 352.513 145.176 351.528 145.583 350.676C145.995 349.819 146.568 349.152 147.301 348.673C148.04 348.19 148.902 347.949 149.887 347.949C150.455 347.949 151.016 348.044 151.57 348.233C152.124 348.422 152.628 348.73 153.083 349.156C153.537 349.578 153.9 350.136 154.169 350.832C154.439 351.528 154.574 352.385 154.574 353.403V354.114H146.165V352.665H152.87C152.87 352.049 152.747 351.5 152.5 351.017C152.259 350.534 151.913 350.153 151.463 349.874C151.018 349.594 150.493 349.455 149.887 349.455C149.219 349.455 148.641 349.62 148.154 349.952C147.671 350.278 147.299 350.705 147.039 351.23C146.778 351.756 146.648 352.319 146.648 352.92V353.886C146.648 354.71 146.79 355.409 147.074 355.982C147.363 356.55 147.763 356.983 148.275 357.281C148.786 357.575 149.38 357.722 150.057 357.722C150.498 357.722 150.895 357.66 151.25 357.537C151.61 357.409 151.92 357.22 152.181 356.969C152.441 356.713 152.642 356.396 152.784 356.017L154.404 356.472C154.233 357.021 153.947 357.504 153.544 357.92C153.142 358.332 152.645 358.654 152.053 358.886C151.461 359.114 150.796 359.227 150.057 359.227Z" fill="#183752"/>
<rect x="71.5" y="437.5" width="64" height="65" rx="32" fill="#CCCCCB"/>
<rect x="71.5" y="437.5" width="64" height="65" rx="32" stroke="black"/>
<path d="M86.7159 535.091C86.6307 534.371 86.285 533.812 85.679 533.415C85.0729 533.017 84.3295 532.818 83.4489 532.818C82.8049 532.818 82.2415 532.922 81.7585 533.131C81.2803 533.339 80.9063 533.625 80.6364 533.99C80.3712 534.355 80.2386 534.769 80.2386 535.233C80.2386 535.621 80.331 535.955 80.5156 536.234C80.705 536.509 80.9465 536.739 81.2401 536.923C81.5336 537.103 81.8414 537.252 82.1634 537.371C82.4853 537.484 82.7812 537.577 83.0511 537.648L84.5284 538.045C84.9072 538.145 85.3286 538.282 85.7926 538.457C86.2614 538.633 86.7088 538.872 87.1349 539.175C87.5658 539.473 87.9209 539.857 88.2003 540.325C88.4796 540.794 88.6193 541.369 88.6193 542.051C88.6193 542.837 88.4134 543.547 88.0014 544.182C87.5942 544.816 86.9976 545.321 86.2116 545.695C85.4304 546.069 84.4811 546.256 83.3636 546.256C82.322 546.256 81.42 546.088 80.6577 545.751C79.9001 545.415 79.3035 544.946 78.8679 544.345C78.437 543.744 78.1932 543.045 78.1364 542.25H79.9545C80.0019 542.799 80.1866 543.254 80.5085 543.614C80.8352 543.969 81.2472 544.234 81.7443 544.409C82.2462 544.58 82.786 544.665 83.3636 544.665C84.036 544.665 84.6397 544.556 85.1747 544.338C85.7098 544.116 86.1335 543.808 86.446 543.415C86.7585 543.017 86.9148 542.553 86.9148 542.023C86.9148 541.54 86.7798 541.147 86.5099 540.844C86.2401 540.541 85.8849 540.295 85.4446 540.105C85.0043 539.916 84.5284 539.75 84.017 539.608L82.2273 539.097C81.0909 538.77 80.1913 538.304 79.5284 537.697C78.8655 537.091 78.5341 536.298 78.5341 535.318C78.5341 534.504 78.7543 533.794 79.1946 533.188C79.6397 532.577 80.2363 532.103 80.9844 531.767C81.7372 531.426 82.5777 531.256 83.5057 531.256C84.4432 531.256 85.2765 531.424 86.0057 531.76C86.7348 532.091 87.3125 532.546 87.7386 533.124C88.1695 533.701 88.3968 534.357 88.4205 535.091H86.7159ZM91.288 546V535.091H92.9641V546H91.288ZM92.1403 533.273C91.8136 533.273 91.5318 533.161 91.2951 532.939C91.0631 532.716 90.9471 532.449 90.9471 532.136C90.9471 531.824 91.0631 531.556 91.2951 531.334C91.5318 531.111 91.8136 531 92.1403 531C92.467 531 92.7463 531.111 92.9783 531.334C93.2151 531.556 93.3335 531.824 93.3335 532.136C93.3335 532.449 93.2151 532.716 92.9783 532.939C92.7463 533.161 92.467 533.273 92.1403 533.273ZM97.7102 531.455V546H96.0341V531.455H97.7102ZM109.701 535.091L105.667 546H103.962L99.9279 535.091H101.746L104.757 543.784H104.871L107.882 535.091H109.701ZM116.096 546.227C115.045 546.227 114.138 545.995 113.376 545.531C112.618 545.062 112.034 544.409 111.622 543.571C111.215 542.728 111.011 541.748 111.011 540.631C111.011 539.513 111.215 538.528 111.622 537.676C112.034 536.819 112.607 536.152 113.341 535.673C114.079 535.19 114.941 534.949 115.926 534.949C116.494 534.949 117.055 535.044 117.609 535.233C118.163 535.422 118.667 535.73 119.122 536.156C119.576 536.578 119.939 537.136 120.208 537.832C120.478 538.528 120.613 539.385 120.613 540.403V541.114H112.204V539.665H118.909C118.909 539.049 118.786 538.5 118.539 538.017C118.298 537.534 117.952 537.153 117.502 536.874C117.057 536.594 116.532 536.455 115.926 536.455C115.258 536.455 114.681 536.62 114.193 536.952C113.71 537.278 113.338 537.705 113.078 538.23C112.817 538.756 112.687 539.319 112.687 539.92V540.886C112.687 541.71 112.829 542.409 113.113 542.982C113.402 543.55 113.802 543.983 114.314 544.281C114.825 544.575 115.419 544.722 116.096 544.722C116.537 544.722 116.934 544.66 117.289 544.537C117.649 544.409 117.959 544.22 118.22 543.969C118.48 543.713 118.681 543.396 118.824 543.017L120.443 543.472C120.272 544.021 119.986 544.504 119.583 544.92C119.181 545.332 118.684 545.654 118.092 545.886C117.5 546.114 116.835 546.227 116.096 546.227ZM123.163 546V535.091H124.782V536.739H124.896C125.095 536.199 125.455 535.761 125.975 535.425C126.496 535.089 127.083 534.92 127.737 534.92C127.86 534.92 128.014 534.923 128.199 534.928C128.383 534.932 128.523 534.939 128.618 534.949V536.653C128.561 536.639 128.431 536.618 128.227 536.589C128.028 536.556 127.817 536.54 127.595 536.54C127.065 536.54 126.591 536.651 126.174 536.874C125.762 537.091 125.436 537.394 125.194 537.783C124.958 538.166 124.839 538.604 124.839 539.097V546H123.163Z" fill="#183752"/>
</svg>
