<svg width="36" height="42" viewBox="0 0 36 42" fill="none" xmlns="http://www.w3.org/2000/svg">
<g clip-path="url(#clip0_47_449)">
<path d="M25 15C21.6915 15 19 12.3085 19 9C19 5.6915 21.6915 3 25 3C28.3085 3 31 5.6915 31 9C31 12.3085 28.3085 15 25 15ZM25 4.5C22.519 4.5 20.5 6.5185 20.5 9C20.5 11.4815 22.519 13.5 25 13.5C27.481 13.5 29.5 11.4815 29.5 9C29.5 6.5185 27.481 4.5 25 4.5ZM26 11.25V6.75C26 6.447 25.8175 6.1735 25.537 6.057C25.256 5.9405 24.934 6.005 24.7195 6.2195L23.2195 7.7195C22.9265 8.0125 22.9265 8.487 23.2195 8.78C23.5125 9.073 23.987 9.073 24.28 8.78L24.4995 8.5605V11.25C24.4995 11.664 24.835 12 25.2495 12C25.664 12 25.9995 11.664 25.9995 11.25H26Z" fill="black"/>
<path d="M25.1004 16.021C24.4848 15.2357 23.6607 14.8085 22.8091 14.8333H9.94464L9.71464 12.4277C9.63112 11.4835 9.29082 10.613 8.75824 9.98121C8.22567 9.34944 7.53784 9.00031 6.82516 9H6.31181C5.96389 9 5.63023 9.18437 5.38422 9.51256C5.13821 9.84075 5 10.2859 5 10.75C5 11.2141 5.13821 11.6592 5.38422 11.9874C5.63023 12.3156 5.96389 12.5 6.31181 12.5H6.82516C6.89671 12.501 6.96543 12.5374 7.01808 12.602C7.07073 12.6666 7.10356 12.755 7.11026 12.85L8.42207 26.5688C8.50481 27.5138 8.8448 28.3852 9.37747 29.0178C9.91015 29.6503 10.5984 29.9998 11.3115 30H20.1636C21.2166 29.9992 22.2403 29.5374 23.0776 28.6855C23.9149 27.8337 24.5195 26.6388 24.7987 25.2843L25.8884 19.9982C26.0336 19.3016 26.0372 18.566 25.8987 17.867C25.7602 17.168 25.4847 16.5308 25.1004 16.021ZM22.2721 24.3568C22.1441 24.972 21.8687 25.5145 21.488 25.9014C21.1073 26.2884 20.6422 26.4986 20.1636 26.5H11.3115C11.24 26.4992 11.1713 26.4629 11.1188 26.3982C11.0662 26.3335 11.0336 26.245 11.0273 26.15L10.2796 18.3333H22.9403C23.0078 18.3327 23.0746 18.3529 23.1353 18.3924C23.196 18.4319 23.249 18.4896 23.2902 18.5611C23.3314 18.6325 23.3596 18.7157 23.3726 18.8041C23.3856 18.8925 23.3831 18.9838 23.3653 19.0707L22.2721 24.3568Z" fill="black" fill-opacity="0.75"/>
</g>
<defs>
<clipPath id="clip0_47_449">
<rect width="36" height="42" fill="white"/>
</clipPath>
</defs>
</svg>
