<svg width="28" height="28" viewBox="0 0 28 28" fill="none" xmlns="http://www.w3.org/2000/svg">
<rect width="28" height="28" rx="14" fill="#EBD381"/>
<path d="M13.9655 3.28065C11.0781 3.2914 8.74577 5.66243 8.75618 8.5765C8.76659 11.4906 11.1158 13.8442 14.0032 13.8334C16.8906 13.8227 19.2229 11.4516 19.2125 8.53758C19.2021 5.62351 16.8529 3.2699 13.9655 3.28065Z" stroke="black" stroke-opacity="0.75" stroke-width="2"/>
<path d="M8.80332 24.736L8.43543 24.7374C6.85287 24.7433 5.51367 23.5605 5.31166 21.9784L4.89141 18.6864C4.73084 17.4285 5.70052 16.3132 6.95891 16.3086L21.0479 16.2562C22.3062 16.2515 23.2838 17.3595 23.1323 18.6186L22.7356 21.9137C22.5449 23.4972 21.2142 24.6899 19.6316 24.6958L19.2637 24.6971" stroke="black" stroke-opacity="0.75" stroke-width="2" stroke-linecap="round" stroke-linejoin="round"/>
<rect x="0.5" y="0.5" width="27" height="27" rx="13.5" stroke="black" stroke-opacity="0.75"/>
</svg>
