<svg width="22" height="22" viewBox="0 0 22 22" fill="none" xmlns="http://www.w3.org/2000/svg">
<path d="M10.6049 4.78212L10.8341 2.41331C10.9263 1.46119 11.8146 0.815353 12.7128 1.04742C14.0643 1.39662 15.0125 2.65163 15.0125 4.09141V7.12624C15.0125 7.80124 15.0125 8.13874 15.159 8.3869C15.2419 8.52729 15.3561 8.64523 15.4919 8.73092C15.732 8.88239 16.0586 8.88239 16.7117 8.88239H17.108C18.8108 8.88239 19.6622 8.88239 20.1864 9.2729C20.5786 9.5649 20.8552 9.9937 20.9652 10.4801C21.1124 11.1304 20.7849 11.9426 20.13 13.5671L19.8035 14.3769C19.6149 14.8447 19.5377 15.3523 19.5784 15.8573C19.8101 18.7306 17.5307 21.1524 14.7451 20.9925L4.32067 20.394C3.18227 20.3286 2.61307 20.2959 2.09856 19.8408C1.58406 19.3856 1.48726 18.9169 1.29365 17.9797C1.12862 17.1807 1 16.2012 1 15.0888C1 13.855 1.15821 12.7847 1.34883 11.943C1.63157 10.6945 2.8242 10.0232 4.05534 10.1822C7.31887 10.6038 10.2777 8.16429 10.6049 4.78212Z" stroke="black" stroke-linecap="round" stroke-linejoin="round"/>
<path d="M6.00008 10.5L5.86309 10.9566C4.97611 13.9132 5.02395 17.0716 6.00008 20" stroke="black" stroke-linecap="round" stroke-linejoin="round"/>
</svg>
