<svg width="22" height="22" viewBox="0 0 22 22" fill="none" xmlns="http://www.w3.org/2000/svg">
<path d="M11.3951 17.2179L11.1659 19.5867C11.0737 20.5388 10.1854 21.1847 9.2872 20.9526C7.93568 20.6034 6.98754 19.3484 6.98754 17.9086V14.8738C6.98754 14.1988 6.98754 13.8613 6.84097 13.6131C6.75806 13.4727 6.64394 13.3548 6.5081 13.2691C6.26797 13.1176 5.94141 13.1176 5.28828 13.1176H4.89197C3.18918 13.1176 2.33779 13.1176 1.81356 12.7271C1.42145 12.4351 1.14483 12.0063 1.03478 11.5199C0.887648 10.8696 1.21511 10.0574 1.87003 8.43293L2.19654 7.62306C2.38511 7.15533 2.46228 6.64765 2.42157 6.1427C2.18988 3.26937 4.46934 0.847556 7.25492 1.0075L17.6793 1.60602C18.8177 1.67138 19.3869 1.70406 19.9014 2.15924C20.4159 2.61442 20.5127 3.08306 20.7063 4.02034C20.8714 4.81926 21 5.79877 21 6.91121C21 8.14499 20.8418 9.2153 20.6512 10.057C20.3684 11.3055 19.1758 11.9769 17.9447 11.8178C14.6811 11.3962 11.7223 13.8357 11.3951 17.2179Z" stroke="black" stroke-linecap="round" stroke-linejoin="round"/>
<path d="M16 11.5L16.137 11.0434C17.024 8.08678 16.9761 4.92839 16 2.00001" stroke="black" stroke-linecap="round" stroke-linejoin="round"/>
</svg>
