<svg width="30" height="34" viewBox="0 0 30 34" fill="none" xmlns="http://www.w3.org/2000/svg">
<path d="M29.1964 8.23438H0.803571C0.359799 8.23438 0 7.87757 0 7.4375V5.3125C0 4.87243 0.359799 4.51562 0.803571 4.51562H29.1964C29.6402 4.51562 30 4.87243 30 5.3125V7.4375C30 7.87757 29.6402 8.23438 29.1964 8.23438ZM29.1964 18.8594H0.803571C0.359799 18.8594 0 18.5026 0 18.0625V15.9375C0 15.4974 0.359799 15.1406 0.803571 15.1406H29.1964C29.6402 15.1406 30 15.4974 30 15.9375V18.0625C30 18.5026 29.6402 18.8594 29.1964 18.8594ZM29.1964 29.4844H0.803571C0.359799 29.4844 0 29.1276 0 28.6875V26.5625C0 26.1224 0.359799 25.7656 0.803571 25.7656H29.1964C29.6402 25.7656 30 26.1224 30 26.5625V28.6875C30 29.1276 29.6402 29.4844 29.1964 29.4844Z" fill="white"/>
</svg>
